<?xml version="1.0" standalone="yes"?>

<svg version="1.1" viewBox="0.0 0.0 960.0 540.0" fill="none" stroke="none" stroke-linecap="square" stroke-miterlimit="10" xmlns="http://www.w3.org/2000/svg" xmlns:xlink="http://www.w3.org/1999/xlink"><clipPath id="g35253f5b98_1_0.0"><path d="m0 0l960.0 0l0 540.0l-960.0 0l0 -540.0z" clip-rule="nonzero"></path></clipPath><g clip-path="url(#g35253f5b98_1_0.0)"><path fill="#ffffff" d="m0 0l960.0 0l0 540.0l-960.0 0z" fill-rule="evenodd"></path><path fill="#000000" fill-opacity="0.0" d="m290.5538 142.53436l0 0c0 -43.08486 34.927185 -78.012054 78.012054 -78.012054l502.71606 0c20.690063 0 40.532715 8.219109 55.16284 22.849205c14.630066 14.630096 22.849182 34.47277 22.849182 55.16285l0 312.03888c0 43.08487 -34.927185 78.012085 -78.012024 78.012085l-502.71606 0c-43.08487 0 -78.012054 -34.927216 -78.012054 -78.012085z" fill-rule="evenodd"></path><path stroke="#595959" stroke-width="4.0" stroke-linejoin="round" stroke-linecap="butt" d="m290.5538 142.53436l0 0c0 -43.08486 34.927185 -78.012054 78.012054 -78.012054l502.71606 0c20.690063 0 40.532715 8.219109 55.16284 22.849205c14.630066 14.630096 22.849182 34.47277 22.849182 55.16285l0 312.03888c0 43.08487 -34.927185 78.012085 -78.012024 78.012085l-502.71606 0c-43.08487 0 -78.012054 -34.927216 -78.012054 -78.012085z" fill-rule="evenodd"></path><path fill="#000000" fill-opacity="0.0" d="m866.3622 185.13387l0 -61.322845" fill-rule="evenodd"></path><path stroke="#595959" stroke-width="1.0" stroke-linejoin="round" stroke-linecap="butt" d="m866.3622 185.13387l0 -61.322845" fill-rule="evenodd"></path><path fill="#000000" fill-opacity="0.0" d="m889.7598 155.07874l-35.968506 0" fill-rule="evenodd"></path><path stroke="#595959" stroke-width="1.0" stroke-linejoin="round" stroke-linecap="butt" d="m889.7598 155.07874l-35.968506 0" fill-rule="evenodd"></path><path fill="#000000" fill-opacity="0.0" d="m796.31757 155.07874l0 0c0 -36.694313 31.361267 -66.44094 70.04724 -66.44094l0 0c18.577698 0 36.39447 7.0000076 49.530884 19.460106c13.136414 12.460091 20.516357 29.359604 20.516357 46.980835l0 0c0 36.69432 -31.361206 66.44095 -70.04724 66.44095l0 0c-38.685974 0 -70.04724 -29.746628 -70.04724 -66.44095z" fill-rule="evenodd"></path><path stroke="#a4c2f4" stroke-width="4.0" stroke-linejoin="round" stroke-linecap="butt" stroke-dasharray="16.0,12.0" d="m796.31757 155.07874l0 0c0 -36.694313 31.361267 -66.44094 70.04724 -66.44094l0 0c18.577698 0 36.39447 7.0000076 49.530884 19.460106c13.136414 12.460091 20.516357 29.359604 20.516357 46.980835l0 0c0 36.69432 -31.361206 66.44095 -70.04724 66.44095l0 0c-38.685974 0 -70.04724 -29.746628 -70.04724 -66.44095z" fill-rule="evenodd"></path><path fill="#eeeeee" d="m853.8058 142.23468l25.115479 0l0 25.700516l-25.115479 0z" fill-rule="evenodd"></path><path stroke="#595959" stroke-width="1.0" stroke-linejoin="round" stroke-linecap="butt" d="m853.8058 142.23468l25.115479 0l0 25.700516l-25.115479 0z" fill-rule="evenodd"></path><path fill="#ffffff" d="m857.51447 161.77332l4.2855835 -4.2855988l0 2.142807l9.129578 0l0 -2.142807l4.2855835 4.2855988l-4.2855835 4.285614l0 -2.142807l-9.129578 0l0 2.142807z" fill-rule="evenodd"></path><path stroke="#595959" stroke-width="1.0" stroke-linejoin="round" stroke-linecap="butt" d="m857.51447 161.77332l4.2855835 -4.2855988l0 2.142807l9.129578 0l0 -2.142807l4.2855835 4.2855988l-4.2855835 4.285614l0 -2.142807l-9.129578 0l0 2.142807z" fill-rule="evenodd"></path><path fill="#ffffff" d="m857.5131 148.44646l4.2855835 -4.285614l0 2.142807l9.129578 0l0 -2.142807l4.2856445 4.285614l-4.2856445 4.2855988l0 -2.142807l-9.129578 0l0 2.142807z" fill-rule="evenodd"></path><path stroke="#595959" stroke-width="1.0" stroke-linejoin="round" stroke-linecap="butt" d="m857.5131 148.44646l4.2855835 -4.285614l0 2.142807l9.129578 0l0 -2.142807l4.2856445 4.285614l-4.2856445 4.2855988l0 -2.142807l-9.129578 0l0 2.142807z" fill-rule="evenodd"></path><path fill="#eeeeee" d="m846.5026 102.37795l0 0c0 -2.3656921 1.9177856 -4.2834625 4.2834473 -4.2834625l31.149597 0c1.1360474 0 2.225586 0.45129395 3.0288696 1.2545929c0.8033447 0.8033066 1.2546387 1.8928223 1.2546387 3.0288696l0 17.133858c0 2.3656921 -1.9177856 4.2834625 -4.2835083 4.2834625l-31.149597 0c-2.3656616 0 -4.2834473 -1.9177704 -4.2834473 -4.2834625z" fill-rule="evenodd"></path><path stroke="#595959" stroke-width="1.0" stroke-linejoin="round" stroke-linecap="butt" d="m846.5026 102.37795l0 0c0 -2.3656921 1.9177856 -4.2834625 4.2834473 -4.2834625l31.149597 0c1.1360474 0 2.225586 0.45129395 3.0288696 1.2545929c0.8033447 0.8033066 1.2546387 1.8928223 1.2546387 3.0288696l0 17.133858c0 2.3656921 -1.9177856 4.2834625 -4.2835083 4.2834625l-31.149597 0c-2.3656616 0 -4.2834473 -1.9177704 -4.2834473 -4.2834625z" fill-rule="evenodd"></path><path fill="#eeeeee" d="m846.50397 189.41733l0 0c0 -2.3656921 1.9177246 -4.2834625 4.2834473 -4.2834625l31.149597 0c1.1360474 0 2.225586 0.4512787 3.0288696 1.2545929c0.8032837 0.80329895 1.2545776 1.8928223 1.2545776 3.0288696l0 17.13385c0 2.3656921 -1.9177856 4.2834625 -4.2834473 4.2834625l-31.149597 0c-2.3657227 0 -4.2834473 -1.9177704 -4.2834473 -4.2834625z" fill-rule="evenodd"></path><path stroke="#595959" stroke-width="1.0" stroke-linejoin="round" stroke-linecap="butt" d="m846.50397 189.41733l0 0c0 -2.3656921 1.9177246 -4.2834625 4.2834473 -4.2834625l31.149597 0c1.1360474 0 2.225586 0.4512787 3.0288696 1.2545929c0.8032837 0.80329895 1.2545776 1.8928223 1.2545776 3.0288696l0 17.13385c0 2.3656921 -1.9177856 4.2834625 -4.2834473 4.2834625l-31.149597 0c-2.3657227 0 -4.2834473 -1.9177704 -4.2834473 -4.2834625z" fill-rule="evenodd"></path><path fill="#eeeeee" d="m889.7598 146.51181l0 0c0 -2.3656921 1.9177856 -4.2834625 4.2835083 -4.2834625l31.149597 0c1.1360474 0 2.225525 0.45129395 3.0288696 1.2545929c0.8032837 0.8033142 1.2545776 1.8928223 1.2545776 3.0288696l0 17.133865c0 2.3656921 -1.9177856 4.2834625 -4.2834473 4.2834625l-31.149597 0c-2.3657227 0 -4.2835083 -1.9177704 -4.2835083 -4.2834625z" fill-rule="evenodd"></path><path stroke="#595959" stroke-width="1.0" stroke-linejoin="round" stroke-linecap="butt" d="m889.7598 146.51181l0 0c0 -2.3656921 1.9177856 -4.2834625 4.2835083 -4.2834625l31.149597 0c1.1360474 0 2.225525 0.45129395 3.0288696 1.2545929c0.8032837 0.8033142 1.2545776 1.8928223 1.2545776 3.0288696l0 17.133865c0 2.3656921 -1.9177856 4.2834625 -4.2834473 4.2834625l-31.149597 0c-2.3657227 0 -4.2835083 -1.9177704 -4.2835083 -4.2834625z" fill-rule="evenodd"></path><path fill="#000000" fill-opacity="0.0" d="m866.3609 123.79527l0 18.425201" fill-rule="evenodd"></path><path stroke="#595959" stroke-width="1.0" stroke-linejoin="round" stroke-linecap="butt" d="m866.3609 123.79527l0 18.425201" fill-rule="evenodd"></path><path fill="#000000" fill-opacity="0.0" d="m325.37534 156.06561l-191.81104 -15.244095" fill-rule="evenodd"></path><path stroke="#a4c2f4" stroke-width="4.0" stroke-linejoin="round" stroke-linecap="butt" d="m325.37534 156.06561l-191.81104 -15.244095" fill-rule="evenodd"></path><path fill="#000000" fill-opacity="0.0" d="m46.58005 66.2746l84.12599 0l0 37.984253l-84.12599 0z" fill-rule="evenodd"></path><path fill="#000000" d="m60.4238 93.194595l0 -11.78125l-4.40625 0l0 -1.578125l10.578129 0l0 1.578125l-4.406254 0l0 11.78125l-1.765625 0zm14.41161 -3.109375l1.6875 0.203125q-0.40625 1.484375 -1.484375 2.3125q-1.078125 0.8125 -2.765625 0.8125q-2.125 0 -3.375 -1.296875q-1.234375 -1.3125 -1.234375 -3.671875q0 -2.453125 1.25 -3.796875q1.265625 -1.34375 3.265625 -1.34375q1.9375 0 3.15625 1.328125q1.234375 1.3125 1.234375 3.703125q0 0.15625 0 0.4375l-7.21875 0q0.09375 1.59375 0.90625 2.453125q0.8125 0.84375 2.015625 0.84375q0.90625 0 1.546875 -0.46875q0.640625 -0.484375 1.015625 -1.515625zm-5.390625 -2.65625l5.40625 0q-0.109375 -1.21875 -0.625 -1.828125q-0.78125 -0.953125 -2.03125 -0.953125q-1.125 0 -1.90625 0.765625q-0.765625 0.75 -0.84375 2.015625zm15.453842 4.578125q-0.921875 0.765625 -1.765625 1.09375q-0.828125 0.3125 -1.796875 0.3125q-1.59375 0 -2.453125 -0.78125q-0.859375 -0.78125 -0.859375 -1.984375q0 -0.71875 0.328125 -1.296875q0.328125 -0.59375 0.84375 -0.9375q0.53125 -0.359375 1.1875 -0.546875q0.46875 -0.125 1.453125 -0.25q1.984375 -0.234375 2.921875 -0.5625q0.015625 -0.34375 0.015625 -0.421875q0 -1.0 -0.46875 -1.421875q-0.625 -0.546875 -1.875 -0.546875q-1.15625 0 -1.703125 0.40625q-0.546875 0.40625 -0.8125 1.421875l-1.609375 -0.21875q0.21875 -1.015625 0.71875 -1.640625q0.5 -0.640625 1.453125 -0.984375q0.953125 -0.34375 2.1875 -0.34375q1.25 0 2.015625 0.296875q0.78125 0.28125 1.140625 0.734375q0.375 0.4375 0.515625 1.109375q0.078125 0.421875 0.078125 1.515625l0 2.1875q0 2.28125 0.109375 2.890625q0.109375 0.59375 0.40625 1.15625l-1.703125 0q-0.265625 -0.515625 -0.328125 -1.1875zm-0.140625 -3.671875q-0.890625 0.375 -2.671875 0.625q-1.015625 0.140625 -1.4375 0.328125q-0.421875 0.1875 -0.65625 0.53125q-0.21875 0.34375 -0.21875 0.78125q0 0.65625 0.5 1.09375q0.5 0.4375 1.453125 0.4375q0.9375 0 1.671875 -0.40625q0.75 -0.421875 1.09375 -1.140625q0.265625 -0.5625 0.265625 -1.640625l0 -0.609375zm4.203842 4.859375l0 -9.671875l1.46875 0l0 1.359375q0.453125 -0.71875 1.203125 -1.140625q0.765625 -0.4375 1.71875 -0.4375q1.078125 0 1.765625 0.453125q0.6875 0.4375 0.96875 1.234375q1.15625 -1.6875 2.984375 -1.6875q1.453125 0 2.21875 0.796875q0.78125 0.796875 0.78125 2.453125l0 6.640625l-1.640625 0l0 -6.09375q0 -0.984375 -0.15625 -1.40625q-0.15625 -0.4375 -0.578125 -0.703125q-0.421875 -0.265625 -0.984375 -0.265625q-1.015625 0 -1.6875 0.6875q-0.671875 0.671875 -0.671875 2.15625l0 5.625l-1.640625 0l0 -6.28125q0 -1.09375 -0.40625 -1.640625q-0.40625 -0.546875 -1.3125 -0.546875q-0.6875 0 -1.28125 0.359375q-0.59375 0.359375 -0.859375 1.0625q-0.25 0.703125 -0.25 2.03125l0 5.015625l-1.640625 0zm14.884552 -2.890625l1.625 -0.25q0.125 0.96875 0.75 1.5q0.625 0.515625 1.75 0.515625q1.125 0 1.671875 -0.453125q0.546875 -0.46875 0.546875 -1.09375q0 -0.546875 -0.484375 -0.875q-0.328125 -0.21875 -1.671875 -0.546875q-1.8125 -0.46875 -2.515625 -0.796875q-0.6875 -0.328125 -1.046875 -0.90625q-0.359375 -0.59375 -0.359375 -1.3125q0 -0.640625 0.296875 -1.1875q0.296875 -0.5625 0.8125 -0.921875q0.375 -0.28125 1.03125 -0.46875q0.671875 -0.203125 1.421875 -0.203125q1.140625 0 2.0 0.328125q0.859375 0.328125 1.265625 0.890625q0.421875 0.5625 0.578125 1.5l-1.609375 0.21875q-0.109375 -0.75 -0.640625 -1.171875q-0.515625 -0.421875 -1.46875 -0.421875q-1.140625 0 -1.625 0.375q-0.46875 0.375 -0.46875 0.875q0 0.3125 0.1875 0.578125q0.203125 0.265625 0.640625 0.4375q0.234375 0.09375 1.4375 0.421875q1.75 0.453125 2.4375 0.75q0.6875 0.296875 1.078125 0.859375q0.390625 0.5625 0.390625 1.40625q0 0.828125 -0.484375 1.546875q-0.46875 0.71875 -1.375 1.125q-0.90625 0.390625 -2.046875 0.390625q-1.875 0 -2.875 -0.78125q-0.984375 -0.78125 -1.25 -2.328125z" fill-rule="nonzero"></path><path fill="#eeeeee" d="m325.37534 120.78776l0 0c0 -9.741287 7.8968506 -17.638153 17.638153 -17.638153l149.66858 0c4.6779175 0 9.164246 1.8582993 12.472046 5.166092c3.3078003 3.3078003 5.166107 7.7941284 5.166107 12.472061l0 70.55047c0 9.741287 -7.896881 17.638153 -17.638153 17.638153l-149.66858 0c-9.7413025 0 -17.638153 -7.896866 -17.638153 -17.638153z" fill-rule="evenodd"></path><path stroke="#595959" stroke-width="1.0" stroke-linejoin="round" stroke-linecap="butt" d="m325.37534 120.78776l0 0c0 -9.741287 7.8968506 -17.638153 17.638153 -17.638153l149.66858 0c4.6779175 0 9.164246 1.8582993 12.472046 5.166092c3.3078003 3.3078003 5.166107 7.7941284 5.166107 12.472061l0 70.55047c0 9.741287 -7.896881 17.638153 -17.638153 17.638153l-149.66858 0c-9.7413025 0 -17.638153 -7.896866 -17.638153 -17.638153z" fill-rule="evenodd"></path><path fill="#000000" d="m340.4476 128.73564q0 -3.328125 1.78125 -5.203125q1.78125 -1.890625 4.609375 -1.890625q1.84375 0 3.328125 0.890625q1.484375 0.875 2.265625 2.46875q0.78125 1.578125 0.78125 3.578125q0 2.03125 -0.828125 3.640625q-0.8125 1.59375 -2.3125 2.421875q-1.5 0.828125 -3.25 0.828125q-1.875 0 -3.359375 -0.90625q-1.484375 -0.921875 -2.25 -2.5q-0.765625 -1.578125 -0.765625 -3.328125zm1.8125 0.015625q0 2.421875 1.296875 3.8125q1.296875 1.390625 3.265625 1.390625q2.0 0 3.28125 -1.40625q1.28125 -1.40625 1.28125 -3.984375q0 -1.625 -0.546875 -2.84375q-0.546875 -1.21875 -1.609375 -1.875q-1.0625 -0.671875 -2.375 -0.671875q-1.890625 0 -3.25 1.296875q-1.34375 1.28125 -1.34375 4.28125zm13.027069 10.1875l0 -13.375l1.484375 0l0 1.25q0.53125 -0.734375 1.1875 -1.09375q0.671875 -0.375 1.625 -0.375q1.234375 0 2.171875 0.640625q0.953125 0.625 1.4375 1.796875q0.484375 1.15625 0.484375 2.546875q0 1.484375 -0.53125 2.671875q-0.53125 1.1875 -1.546875 1.828125q-1.015625 0.625 -2.140625 0.625q-0.8125 0 -1.46875 -0.34375q-0.65625 -0.34375 -1.0625 -0.875l0 4.703125l-1.640625 0zm1.484375 -8.484375q0 1.859375 0.75 2.765625q0.765625 0.890625 1.828125 0.890625q1.09375 0 1.875 -0.921875q0.78125 -0.9375 0.78125 -2.875q0 -1.84375 -0.765625 -2.765625q-0.75 -0.921875 -1.8125 -0.921875q-1.046875 0 -1.859375 0.984375q-0.796875 0.96875 -0.796875 2.84375zm15.516327 1.671875l1.6875 0.203125q-0.40625 1.484375 -1.484375 2.3125q-1.078125 0.8125 -2.765625 0.8125q-2.125 0 -3.375 -1.296875q-1.234375 -1.3125 -1.234375 -3.671875q0 -2.453125 1.25 -3.796875q1.265625 -1.34375 3.265625 -1.34375q1.9375 0 3.15625 1.328125q1.234375 1.3125 1.234375 3.703125q0 0.15625 0 0.4375l-7.21875 0q0.09375 1.59375 0.90625 2.453125q0.8125 0.84375 2.015625 0.84375q0.90625 0 1.546875 -0.46875q0.640625 -0.484375 1.015625 -1.515625zm-5.390625 -2.65625l5.40625 0q-0.109375 -1.21875 -0.625 -1.828125q-0.78125 -0.953125 -2.03125 -0.953125q-1.125 0 -1.90625 0.765625q-0.765625 0.75 -0.84375 2.015625zm9.141357 5.765625l0 -9.671875l1.46875 0l0 1.375q1.0625 -1.59375 3.078125 -1.59375q0.875 0 1.609375 0.3125q0.734375 0.3125 1.09375 0.828125q0.375 0.5 0.515625 1.203125q0.09375 0.453125 0.09375 1.59375l0 5.953125l-1.640625 0l0 -5.890625q0 -1.0 -0.203125 -1.484375q-0.1875 -0.5 -0.671875 -0.796875q-0.484375 -0.296875 -1.140625 -0.296875q-1.046875 0 -1.8125 0.671875q-0.75 0.65625 -0.75 2.515625l0 5.28125l-1.640625 0zm14.391327 0l-5.171875 -13.359375l1.921875 0l3.46875 9.703125q0.421875 1.171875 0.703125 2.1875q0.3125 -1.09375 0.71875 -2.1875l3.609375 -9.703125l1.796875 0l-5.234375 13.359375l-1.8125 0zm8.631073 0l0 -13.359375l5.046875 0q1.328125 0 2.03125 0.125q0.96875 0.171875 1.640625 0.640625q0.671875 0.453125 1.078125 1.28125q0.40625 0.828125 0.40625 1.828125q0 1.703125 -1.09375 2.890625q-1.078125 1.171875 -3.921875 1.171875l-3.421875 0l0 5.421875l-1.765625 0zm1.765625 -7.0l3.453125 0q1.71875 0 2.4375 -0.640625q0.71875 -0.640625 0.71875 -1.796875q0 -0.84375 -0.421875 -1.4375q-0.421875 -0.59375 -1.125 -0.78125q-0.4375 -0.125 -1.640625 -0.125l-3.421875 0l0 4.78125zm10.662323 7.0l0 -13.359375l1.8125 0l7.015625 10.484375l0 -10.484375l1.6875 0l0 13.359375l-1.8125 0l-7.015625 -10.5l0 10.5l-1.6875 0zm22.078125 0l0 -11.78125l-4.40625 0l0 -1.578125l10.578125 0l0 1.578125l-4.40625 0l0 11.78125l-1.765625 0zm14.114746 0l0 -1.421875q-1.125 1.640625 -3.0625 1.640625q-0.859375 0 -1.609375 -0.328125q-0.734375 -0.328125 -1.09375 -0.828125q-0.359375 -0.5 -0.5 -1.21875q-0.109375 -0.46875 -0.109375 -1.53125l0 -5.984375l1.640625 0l0 5.359375q0 1.28125 0.109375 1.734375q0.15625 0.640625 0.65625 1.015625q0.5 0.375 1.234375 0.375q0.734375 0 1.375 -0.375q0.65625 -0.390625 0.921875 -1.03125q0.265625 -0.65625 0.265625 -1.890625l0 -5.1875l1.640625 0l0 9.671875l-1.46875 0zm4.047577 0l0 -9.671875l1.46875 0l0 1.375q1.0625 -1.59375 3.078125 -1.59375q0.875 0 1.609375 0.3125q0.734375 0.3125 1.09375 0.828125q0.375 0.5 0.515625 1.203125q0.09375 0.453125 0.09375 1.59375l0 5.953125l-1.640625 0l0 -5.890625q0 -1.0 -0.203125 -1.484375q-0.1875 -0.5 -0.671875 -0.796875q-0.484375 -0.296875 -1.140625 -0.296875q-1.046875 0 -1.8125 0.671875q-0.75 0.65625 -0.75 2.515625l0 5.28125l-1.640625 0zm10.375732 0l0 -9.671875l1.46875 0l0 1.375q1.0625 -1.59375 3.078125 -1.59375q0.875 0 1.609375 0.3125q0.734375 0.3125 1.09375 0.828125q0.375 0.5 0.515625 1.203125q0.09375 0.453125 0.09375 1.59375l0 5.953125l-1.640625 0l0 -5.890625q0 -1.0 -0.203125 -1.484375q-0.1875 -0.5 -0.671875 -0.796875q-0.484375 -0.296875 -1.140625 -0.296875q-1.046875 0 -1.8125 0.671875q-0.75 0.65625 -0.75 2.515625l0 5.28125l-1.640625 0zm17.000702 -3.109375l1.6875 0.203125q-0.40625 1.484375 -1.484375 2.3125q-1.078125 0.8125 -2.765625 0.8125q-2.125 0 -3.375 -1.296875q-1.234375 -1.3125 -1.234375 -3.671875q0 -2.453125 1.25 -3.796875q1.265625 -1.34375 3.265625 -1.34375q1.9375 0 3.15625 1.328125q1.234375 1.3125 1.234375 3.703125q0 0.15625 0 0.4375l-7.21875 0q0.09375 1.59375 0.90625 2.453125q0.8125 0.84375 2.015625 0.84375q0.90625 0 1.546875 -0.46875q0.640625 -0.484375 1.015625 -1.515625zm-5.390625 -2.65625l5.40625 0q-0.109375 -1.21875 -0.625 -1.828125q-0.78125 -0.953125 -2.03125 -0.953125q-1.125 0 -1.90625 0.765625q-0.765625 0.75 -0.84375 2.015625zm9.094482 5.765625l0 -13.359375l1.640625 0l0 13.359375l-1.640625 0z" fill-rule="nonzero"></path><path fill="#000000" fill-opacity="0.0" d="m601.084 161.76378l252.72443 -6.67717" fill-rule="evenodd"></path><path stroke="#a4c2f4" stroke-width="4.0" stroke-linejoin="round" stroke-linecap="butt" d="m601.084 161.76378l252.72443 -6.67717" fill-rule="evenodd"></path><path fill="#000000" fill-opacity="0.0" d="m866.3622 331.31497l0 -61.322845" fill-rule="evenodd"></path><path stroke="#595959" stroke-width="1.0" stroke-linejoin="round" stroke-linecap="butt" d="m866.3622 331.31497l0 -61.322845" fill-rule="evenodd"></path><path fill="#000000" fill-opacity="0.0" d="m889.7598 301.25986l-35.968506 0" fill-rule="evenodd"></path><path stroke="#595959" stroke-width="1.0" stroke-linejoin="round" stroke-linecap="butt" d="m889.7598 301.25986l-35.968506 0" fill-rule="evenodd"></path><path fill="#000000" fill-opacity="0.0" d="m796.31757 300.64435l0 0c0 -36.694305 31.361267 -66.44093 70.04724 -66.44093l0 0c18.577698 0 36.39447 7.0 49.530884 19.460098c13.136414 12.460083 20.516357 29.35962 20.516357 46.980835l0 0c0 36.694336 -31.361206 66.44095 -70.04724 66.44095l0 0c-38.685974 0 -70.04724 -29.746613 -70.04724 -66.44095z" fill-rule="evenodd"></path><path stroke="#b6d7a8" stroke-width="4.0" stroke-linejoin="round" stroke-linecap="butt" stroke-dasharray="16.0,12.0" d="m796.31757 300.64435l0 0c0 -36.694305 31.361267 -66.44093 70.04724 -66.44093l0 0c18.577698 0 36.39447 7.0 49.530884 19.460098c13.136414 12.460083 20.516357 29.35962 20.516357 46.980835l0 0c0 36.694336 -31.361206 66.44095 -70.04724 66.44095l0 0c-38.685974 0 -70.04724 -29.746613 -70.04724 -66.44095z" fill-rule="evenodd"></path><path fill="#eeeeee" d="m853.8058 288.4158l25.115479 0l0 25.7005l-25.115479 0z" fill-rule="evenodd"></path><path stroke="#595959" stroke-width="1.0" stroke-linejoin="round" stroke-linecap="butt" d="m853.8058 288.4158l25.115479 0l0 25.7005l-25.115479 0z" fill-rule="evenodd"></path><path fill="#ffffff" d="m857.51447 307.95444l4.2855835 -4.285614l0 2.1427917l9.129578 0l0 -2.1427917l4.2855835 4.285614l-4.2855835 4.2855835l0 -2.1427917l-9.129578 0l0 2.1427917z" fill-rule="evenodd"></path><path stroke="#595959" stroke-width="1.0" stroke-linejoin="round" stroke-linecap="butt" d="m857.51447 307.95444l4.2855835 -4.285614l0 2.1427917l9.129578 0l0 -2.1427917l4.2855835 4.285614l-4.2855835 4.2855835l0 -2.1427917l-9.129578 0l0 2.1427917z" fill-rule="evenodd"></path><path fill="#ffffff" d="m857.5131 294.62756l4.2855835 -4.285614l0 2.1427917l9.129578 0l0 -2.1427917l4.2856445 4.285614l-4.2856445 4.2855835l0 -2.1427917l-9.129578 0l0 2.1427917z" fill-rule="evenodd"></path><path stroke="#595959" stroke-width="1.0" stroke-linejoin="round" stroke-linecap="butt" d="m857.5131 294.62756l4.2855835 -4.285614l0 2.1427917l9.129578 0l0 -2.1427917l4.2856445 4.285614l-4.2856445 4.2855835l0 -2.1427917l-9.129578 0l0 2.1427917z" fill-rule="evenodd"></path><path fill="#eeeeee" d="m846.5026 248.55905l0 0c0 -2.3656921 1.9177856 -4.2834625 4.2834473 -4.2834625l31.149597 0c1.1360474 0 2.225586 0.45129395 3.0288696 1.2545929c0.8033447 0.8033142 1.2546387 1.8928223 1.2546387 3.0288696l0 17.13385c0 2.3656921 -1.9177856 4.283478 -4.2835083 4.283478l-31.149597 0c-2.3656616 0 -4.2834473 -1.9177856 -4.2834473 -4.283478z" fill-rule="evenodd"></path><path stroke="#595959" stroke-width="1.0" stroke-linejoin="round" stroke-linecap="butt" d="m846.5026 248.55905l0 0c0 -2.3656921 1.9177856 -4.2834625 4.2834473 -4.2834625l31.149597 0c1.1360474 0 2.225586 0.45129395 3.0288696 1.2545929c0.8033447 0.8033142 1.2546387 1.8928223 1.2546387 3.0288696l0 17.13385c0 2.3656921 -1.9177856 4.283478 -4.2835083 4.283478l-31.149597 0c-2.3656616 0 -4.2834473 -1.9177856 -4.2834473 -4.283478z" fill-rule="evenodd"></path><path fill="#eeeeee" d="m846.50397 335.59842l0 0c0 -2.3656921 1.9177246 -4.2834473 4.2834473 -4.2834473l31.149597 0c1.1360474 0 2.225586 0.45129395 3.0288696 1.2545776c0.8032837 0.8033142 1.2545776 1.8928223 1.2545776 3.0288696l0 17.13385c0 2.3656921 -1.9177856 4.283478 -4.2834473 4.283478l-31.149597 0c-2.3657227 0 -4.2834473 -1.9177856 -4.2834473 -4.283478z" fill-rule="evenodd"></path><path stroke="#595959" stroke-width="1.0" stroke-linejoin="round" stroke-linecap="butt" d="m846.50397 335.59842l0 0c0 -2.3656921 1.9177246 -4.2834473 4.2834473 -4.2834473l31.149597 0c1.1360474 0 2.225586 0.45129395 3.0288696 1.2545776c0.8032837 0.8033142 1.2545776 1.8928223 1.2545776 3.0288696l0 17.13385c0 2.3656921 -1.9177856 4.283478 -4.2834473 4.283478l-31.149597 0c-2.3657227 0 -4.2834473 -1.9177856 -4.2834473 -4.283478z" fill-rule="evenodd"></path><path fill="#eeeeee" d="m889.7598 292.6929l0 0c0 -2.3656921 1.9177856 -4.2834473 4.2835083 -4.2834473l31.149597 0c1.1360474 0 2.225525 0.45129395 3.0288696 1.2545776c0.8032837 0.8033142 1.2545776 1.8928223 1.2545776 3.0288696l0 17.13388c0 2.3656921 -1.9177856 4.2834473 -4.2834473 4.2834473l-31.149597 0c-2.3657227 0 -4.2835083 -1.9177551 -4.2835083 -4.2834473z" fill-rule="evenodd"></path><path stroke="#595959" stroke-width="1.0" stroke-linejoin="round" stroke-linecap="butt" d="m889.7598 292.6929l0 0c0 -2.3656921 1.9177856 -4.2834473 4.2835083 -4.2834473l31.149597 0c1.1360474 0 2.225525 0.45129395 3.0288696 1.2545776c0.8032837 0.8033142 1.2545776 1.8928223 1.2545776 3.0288696l0 17.13388c0 2.3656921 -1.9177856 4.2834473 -4.2834473 4.2834473l-31.149597 0c-2.3657227 0 -4.2835083 -1.9177551 -4.2835083 -4.2834473z" fill-rule="evenodd"></path><path fill="#000000" fill-opacity="0.0" d="m866.3609 269.97638l0 18.425201" fill-rule="evenodd"></path><path stroke="#595959" stroke-width="1.0" stroke-linejoin="round" stroke-linecap="butt" d="m866.3609 269.97638l0 18.425201" fill-rule="evenodd"></path><path fill="#b6d7a8" d="m37.745407 217.88715l0 0c0 -5.5344543 4.486553 -10.021011 10.020996 -10.021011l78.698166 0c2.65773 0 5.206604 1.0557861 7.085907 2.935089c1.879303 1.879303 2.935089 4.428177 2.935089 7.0859222l0 40.083984c0 5.5344543 -4.486557 10.020996 -10.020996 10.020996l-78.698166 0c-5.534443 0 -10.020996 -4.4865417 -10.020996 -10.020996z" fill-rule="evenodd"></path><path stroke="#595959" stroke-width="1.0" stroke-linejoin="round" stroke-linecap="butt" d="m37.745407 217.88715l0 0c0 -5.5344543 4.486553 -10.021011 10.020996 -10.021011l78.698166 0c2.65773 0 5.206604 1.0557861 7.085907 2.935089c1.879303 1.879303 2.935089 4.428177 2.935089 7.0859222l0 40.083984c0 5.5344543 -4.486557 10.020996 -10.020996 10.020996l-78.698166 0c-5.534443 0 -10.020996 -4.4865417 -10.020996 -10.020996z" fill-rule="evenodd"></path><path fill="#000000" d="m59.883583 231.48976l1.765625 0l0 7.71875q0 2.015625 -0.453125 3.203125q-0.453125 1.1875 -1.640625 1.9375q-1.1875 0.734375 -3.125 0.734375q-1.875 0 -3.078125 -0.640625q-1.1875 -0.65625 -1.703125 -1.875q-0.5 -1.234375 -0.5 -3.359375l0 -7.71875l1.765625 0l0 7.71875q0 1.734375 0.3125 2.5625q0.328125 0.8125 1.109375 1.265625q0.796875 0.453125 1.9375 0.453125q1.953125 0 2.78125 -0.890625q0.828125 -0.890625 0.828125 -3.390625l0 -7.71875zm3.8479462 10.46875l1.625 -0.25q0.125 0.96875 0.75 1.5q0.625 0.515625 1.75 0.515625q1.125 0 1.671875 -0.453125q0.546875 -0.46875 0.546875 -1.09375q0 -0.546875 -0.484375 -0.875q-0.328125 -0.21875 -1.671875 -0.546875q-1.8125 -0.46875 -2.515625 -0.796875q-0.6875 -0.328125 -1.046875 -0.90625q-0.359375 -0.59375 -0.359375 -1.3125q0 -0.640625 0.296875 -1.1875q0.296875 -0.5625 0.8125 -0.921875q0.375 -0.28125 1.03125 -0.46875q0.671875 -0.203125 1.421875 -0.203125q1.140625 0 2.0 0.328125q0.859375 0.328125 1.265625 0.890625q0.421875 0.5625 0.578125 1.5l-1.609375 0.21875q-0.109375 -0.75 -0.640625 -1.171875q-0.515625 -0.421875 -1.46875 -0.421875q-1.140625 0 -1.625 0.375q-0.46875 0.375 -0.46875 0.875q0 0.3125 0.1875 0.578125q0.203125 0.265625 0.640625 0.4375q0.234375 0.09375 1.4375 0.421875q1.75 0.453125 2.4375 0.75q0.6875 0.296875 1.078125 0.859375q0.390625 0.5625 0.390625 1.40625q0 0.828125 -0.484375 1.546875q-0.46875 0.71875 -1.375 1.125q-0.90625 0.390625 -2.046875 0.390625q-1.875 0 -2.875 -0.78125q-0.984375 -0.78125 -1.25 -2.328125zm16.609375 -0.21875l1.6875 0.203125q-0.40625 1.484375 -1.484375 2.3125q-1.078125 0.8125 -2.765625 0.8125q-2.125 0 -3.375 -1.296875q-1.234375 -1.3125 -1.234375 -3.671875q0 -2.453125 1.25 -3.796875q1.265625 -1.34375 3.265625 -1.34375q1.9375 0 3.15625 1.328125q1.234375 1.3125 1.234375 3.703125q0 0.15625 0 0.4375l-7.21875 0q0.09375 1.59375 0.90625 2.453125q0.8125 0.84375 2.015625 0.84375q0.90625 0 1.546875 -0.46875q0.640625 -0.484375 1.015625 -1.515625zm-5.390625 -2.65625l5.40625 0q-0.109375 -1.21875 -0.625 -1.828125q-0.78125 -0.953125 -2.03125 -0.953125q-1.125 0 -1.90625 0.765625q-0.765625 0.75 -0.84375 2.015625zm9.125717 5.765625l0 -9.671875l1.46875 0l0 1.46875q0.5625 -1.03125 1.03125 -1.359375q0.484375 -0.328125 1.0625 -0.328125q0.828125 0 1.6875 0.53125l-0.5625 1.515625q-0.609375 -0.359375 -1.203125 -0.359375q-0.546875 0 -0.96875 0.328125q-0.421875 0.328125 -0.609375 0.890625q-0.28125 0.875 -0.28125 1.921875l0 5.0625l-1.625 0z" fill-rule="nonzero"></path><path fill="#000000" fill-opacity="0.0" d="m136.48557 237.92914l188.8819 -81.85828" fill-rule="evenodd"></path><path stroke="#b6d7a8" stroke-width="4.0" stroke-linejoin="round" stroke-linecap="butt" d="m136.48557 237.92914l188.8819 -81.85828" fill-rule="evenodd"></path><path fill="#000000" fill-opacity="0.0" d="m601.084 161.76378l252.72443 136.7874" fill-rule="evenodd"></path><path stroke="#b6d7a8" stroke-width="4.0" stroke-linejoin="round" stroke-linecap="butt" d="m601.084 161.76378l252.72443 136.7874" fill-rule="evenodd"></path><path fill="#eeeeee" d="m380.17322 163.18373l0 0c0 -3.4180756 2.6792603 -6.18898 5.984253 -6.18898l0 0c1.5871277 0 3.109253 0.65205383 4.2315063 1.8127136c1.1222839 1.1606598 1.7527466 2.734848 1.7527466 4.3762665l0 0c0 3.4180756 -2.6792297 6.188965 -5.984253 6.188965l0 0c-3.3049927 0 -5.984253 -2.7708893 -5.984253 -6.188965z" fill-rule="evenodd"></path><path fill="#000000" fill-opacity="0.0" d="m386.15747 156.99475l0 12.377945m-5.984253 -6.188965l11.968506 0" fill-rule="evenodd"></path><path fill="#000000" fill-opacity="0.0" d="m380.17322 163.18373l0 0c0 -3.4180756 2.6792603 -6.18898 5.984253 -6.18898l0 0c1.5871277 0 3.109253 0.65205383 4.2315063 1.8127136c1.1222839 1.1606598 1.7527466 2.734848 1.7527466 4.3762665l0 0c0 3.4180756 -2.6792297 6.188965 -5.984253 6.188965l0 0c-3.3049927 0 -5.984253 -2.7708893 -5.984253 -6.188965z" fill-rule="evenodd"></path><path stroke="#595959" stroke-width="1.0" stroke-linejoin="round" stroke-linecap="butt" d="m386.15747 156.99475l0 12.377945m-5.984253 -6.188965l11.968506 0" fill-rule="evenodd"></path><path stroke="#595959" stroke-width="1.0" stroke-linejoin="round" stroke-linecap="butt" d="m380.17322 163.18373l0 0c0 -3.4180756 2.6792603 -6.18898 5.984253 -6.18898l0 0c1.5871277 0 3.109253 0.65205383 4.2315063 1.8127136c1.1222839 1.1606598 1.7527466 2.734848 1.7527466 4.3762665l0 0c0 3.4180756 -2.6792297 6.188965 -5.984253 6.188965l0 0c-3.3049927 0 -5.984253 -2.7708893 -5.984253 -6.188965z" fill-rule="evenodd"></path><path fill="#000000" fill-opacity="0.0" d="m886.8989 446.82678l-35.968506 0" fill-rule="evenodd"></path><path stroke="#595959" stroke-width="1.0" stroke-linejoin="round" stroke-linecap="butt" d="m886.8989 446.82678l-35.968506 0" fill-rule="evenodd"></path><path fill="#000000" fill-opacity="0.0" d="m863.50134 476.8819l0 -61.322845" fill-rule="evenodd"></path><path stroke="#595959" stroke-width="1.0" stroke-linejoin="round" stroke-linecap="butt" d="m863.50134 476.8819l0 -61.322845" fill-rule="evenodd"></path><path fill="#000000" fill-opacity="0.0" d="m796.31757 446.2126l0 0c0 -36.694305 31.361267 -66.44092 70.04724 -66.44092l0 0c18.577698 0 36.39447 7.0 49.530884 19.460083c13.136414 12.460114 20.516357 29.35962 20.516357 46.980835l0 0c0 36.694336 -31.361206 66.44098 -70.04724 66.44098l0 0c-38.685974 0 -70.04724 -29.746643 -70.04724 -66.44098z" fill-rule="evenodd"></path><path stroke="#d5a6bd" stroke-width="4.0" stroke-linejoin="round" stroke-linecap="butt" stroke-dasharray="16.0,12.0" d="m796.31757 446.2126l0 0c0 -36.694305 31.361267 -66.44092 70.04724 -66.44092l0 0c18.577698 0 36.39447 7.0 49.530884 19.460083c13.136414 12.460114 20.516357 29.35962 20.516357 46.980835l0 0c0 36.694336 -31.361206 66.44098 -70.04724 66.44098l0 0c-38.685974 0 -70.04724 -29.746643 -70.04724 -66.44098z" fill-rule="evenodd"></path><path fill="#eeeeee" d="m850.9449 433.98273l25.115479 0l0 25.7005l-25.115479 0z" fill-rule="evenodd"></path><path stroke="#595959" stroke-width="1.0" stroke-linejoin="round" stroke-linecap="butt" d="m850.9449 433.98273l25.115479 0l0 25.7005l-25.115479 0z" fill-rule="evenodd"></path><path fill="#ffffff" d="m854.65356 453.52136l4.2855835 -4.285614l0 2.1427917l9.129578 0l0 -2.1427917l4.2855835 4.285614l-4.2855835 4.2855835l0 -2.1427917l-9.129578 0l0 2.1427917z" fill-rule="evenodd"></path><path stroke="#595959" stroke-width="1.0" stroke-linejoin="round" stroke-linecap="butt" d="m854.65356 453.52136l4.2855835 -4.285614l0 2.1427917l9.129578 0l0 -2.1427917l4.2855835 4.285614l-4.2855835 4.2855835l0 -2.1427917l-9.129578 0l0 2.1427917z" fill-rule="evenodd"></path><path fill="#ffffff" d="m854.6522 440.1945l4.2856445 -4.285614l0 2.1427917l9.129517 0l0 -2.1427917l4.2856445 4.285614l-4.2856445 4.285614l0 -2.1428223l-9.129517 0l0 2.1428223z" fill-rule="evenodd"></path><path stroke="#595959" stroke-width="1.0" stroke-linejoin="round" stroke-linecap="butt" d="m854.6522 440.1945l4.2856445 -4.285614l0 2.1427917l9.129517 0l0 -2.1427917l4.2856445 4.285614l-4.2856445 4.285614l0 -2.1428223l-9.129517 0l0 2.1428223z" fill-rule="evenodd"></path><path fill="#eeeeee" d="m843.6417 394.12598l0 0c0 -2.3656921 1.9177856 -4.2834473 4.2834473 -4.2834473l31.149658 0c1.1360474 0 2.225525 0.45129395 3.0288696 1.2545776c0.8032837 0.8033142 1.2545776 1.8928223 1.2545776 3.0288696l0 17.13388c0 2.3656921 -1.9177856 4.2834473 -4.2834473 4.2834473l-31.149658 0c-2.3656616 0 -4.2834473 -1.9177551 -4.2834473 -4.2834473z" fill-rule="evenodd"></path><path stroke="#595959" stroke-width="1.0" stroke-linejoin="round" stroke-linecap="butt" d="m843.6417 394.12598l0 0c0 -2.3656921 1.9177856 -4.2834473 4.2834473 -4.2834473l31.149658 0c1.1360474 0 2.225525 0.45129395 3.0288696 1.2545776c0.8032837 0.8033142 1.2545776 1.8928223 1.2545776 3.0288696l0 17.13388c0 2.3656921 -1.9177856 4.2834473 -4.2834473 4.2834473l-31.149658 0c-2.3656616 0 -4.2834473 -1.9177551 -4.2834473 -4.2834473z" fill-rule="evenodd"></path><path fill="#eeeeee" d="m843.64307 481.16534l0 0c0 -2.3656921 1.9177246 -4.2834473 4.2834473 -4.2834473l31.149597 0c1.1360474 0 2.225586 0.45129395 3.0288696 1.2545776c0.8032837 0.8033142 1.2545776 1.8928223 1.2545776 3.0288696l0 17.13388c0 2.3656921 -1.9177246 4.2834473 -4.2834473 4.2834473l-31.149597 0c-2.3657227 0 -4.2834473 -1.9177551 -4.2834473 -4.2834473z" fill-rule="evenodd"></path><path stroke="#595959" stroke-width="1.0" stroke-linejoin="round" stroke-linecap="butt" d="m843.64307 481.16534l0 0c0 -2.3656921 1.9177246 -4.2834473 4.2834473 -4.2834473l31.149597 0c1.1360474 0 2.225586 0.45129395 3.0288696 1.2545776c0.8032837 0.8033142 1.2545776 1.8928223 1.2545776 3.0288696l0 17.13388c0 2.3656921 -1.9177246 4.2834473 -4.2834473 4.2834473l-31.149597 0c-2.3657227 0 -4.2834473 -1.9177551 -4.2834473 -4.2834473z" fill-rule="evenodd"></path><path fill="#eeeeee" d="m886.8989 438.25986l0 0c0 -2.3656921 1.9177856 -4.283478 4.2835083 -4.283478l31.149597 0c1.1360474 0 2.225525 0.45129395 3.0288696 1.2546082c0.8032837 0.8032837 1.2545776 1.8928223 1.2545776 3.0288696l0 17.13385c0 2.3656921 -1.9177856 4.2834473 -4.2834473 4.2834473l-31.149597 0c-2.3657227 0 -4.2835083 -1.9177551 -4.2835083 -4.2834473z" fill-rule="evenodd"></path><path stroke="#595959" stroke-width="1.0" stroke-linejoin="round" stroke-linecap="butt" d="m886.8989 438.25986l0 0c0 -2.3656921 1.9177856 -4.283478 4.2835083 -4.283478l31.149597 0c1.1360474 0 2.225525 0.45129395 3.0288696 1.2546082c0.8032837 0.8032837 1.2545776 1.8928223 1.2545776 3.0288696l0 17.13385c0 2.3656921 -1.9177856 4.2834473 -4.2834473 4.2834473l-31.149597 0c-2.3657227 0 -4.2835083 -1.9177551 -4.2835083 -4.2834473z" fill-rule="evenodd"></path><path fill="#000000" fill-opacity="0.0" d="m863.5 415.5433l0 18.425201" fill-rule="evenodd"></path><path stroke="#595959" stroke-width="1.0" stroke-linejoin="round" stroke-linecap="butt" d="m863.5 415.5433l0 18.425201" fill-rule="evenodd"></path><path fill="#000000" fill-opacity="0.0" d="m325.37534 156.06299l-191.81104 210.92914" fill-rule="evenodd"></path><path stroke="#d5a6bd" stroke-width="4.0" stroke-linejoin="round" stroke-linecap="butt" d="m325.37534 156.06299l-191.81104 210.92914" fill-rule="evenodd"></path><path fill="#d5a6bd" d="m34.824146 346.9449l0 0c0 -5.5344543 4.486553 -10.020996 10.021 -10.020996l78.69816 0c2.6577377 0 5.2066193 1.0557861 7.0859222 2.935089c1.879303 1.879303 2.9350739 4.4281616 2.9350739 7.085907l0 40.083984c0 5.5344543 -4.486557 10.020996 -10.020996 10.020996l-78.69816 0c-5.5344467 0 -10.021 -4.4865417 -10.021 -10.020996z" fill-rule="evenodd"></path><path stroke="#595959" stroke-width="1.0" stroke-linejoin="round" stroke-linecap="butt" d="m34.824146 346.9449l0 0c0 -5.5344543 4.486553 -10.020996 10.021 -10.020996l78.69816 0c2.6577377 0 5.2066193 1.0557861 7.0859222 2.935089c1.879303 1.879303 2.9350739 4.4281616 2.9350739 7.085907l0 40.083984c0 5.5344543 -4.486557 10.020996 -10.020996 10.020996l-78.69816 0c-5.5344467 0 -10.021 -4.4865417 -10.021 -10.020996z" fill-rule="evenodd"></path><path fill="#000000" d="m56.962322 360.54752l1.765625 0l0 7.71875q0 2.015625 -0.453125 3.203125q-0.453125 1.1875 -1.640625 1.9375q-1.1875 0.734375 -3.125 0.734375q-1.875 0 -3.078125 -0.640625q-1.1875 -0.65625 -1.703125 -1.875q-0.5 -1.234375 -0.5 -3.359375l0 -7.71875l1.765625 0l0 7.71875q0 1.734375 0.3125 2.5625q0.328125 0.8125 1.109375 1.265625q0.796875 0.453125 1.9375 0.453125q1.953125 0 2.78125 -0.890625q0.828125 -0.890625 0.828125 -3.390625l0 -7.71875zm3.8479462 10.46875l1.625 -0.25q0.125 0.96875 0.75 1.5q0.625 0.515625 1.7499962 0.515625q1.125 0 1.671875 -0.453125q0.546875 -0.46875 0.546875 -1.09375q0 -0.546875 -0.484375 -0.875q-0.328125 -0.21875 -1.671875 -0.546875q-1.8124962 -0.46875 -2.5156212 -0.796875q-0.6875 -0.328125 -1.046875 -0.90625q-0.359375 -0.59375 -0.359375 -1.3125q0 -0.640625 0.296875 -1.1875q0.296875 -0.5625 0.8125 -0.921875q0.375 -0.28125 1.03125 -0.46875q0.671875 -0.203125 1.4218712 -0.203125q1.140625 0 2.0 0.328125q0.859375 0.328125 1.265625 0.890625q0.421875 0.5625 0.578125 1.5l-1.609375 0.21875q-0.109375 -0.75 -0.640625 -1.171875q-0.515625 -0.421875 -1.46875 -0.421875q-1.1406212 0 -1.6249962 0.375q-0.46875 0.375 -0.46875 0.875q0 0.3125 0.1875 0.578125q0.203125 0.265625 0.640625 0.4375q0.234375 0.09375 1.4374962 0.421875q1.75 0.453125 2.4375 0.75q0.6875 0.296875 1.078125 0.859375q0.390625 0.5625 0.390625 1.40625q0 0.828125 -0.484375 1.546875q-0.46875 0.71875 -1.375 1.125q-0.90625 0.390625 -2.046875 0.390625q-1.8749962 0 -2.8749962 -0.78125q-0.984375 -0.78125 -1.25 -2.328125zm16.609371 -0.21875l1.6875 0.203125q-0.40625 1.484375 -1.484375 2.3125q-1.078125 0.8125 -2.765625 0.8125q-2.125 0 -3.375 -1.296875q-1.234375 -1.3125 -1.234375 -3.671875q0 -2.453125 1.25 -3.796875q1.265625 -1.34375 3.265625 -1.34375q1.9375 0 3.15625 1.328125q1.234375 1.3125 1.234375 3.703125q0 0.15625 0 0.4375l-7.21875 0q0.09375 1.59375 0.90625 2.453125q0.8125 0.84375 2.015625 0.84375q0.90625 0 1.546875 -0.46875q0.640625 -0.484375 1.015625 -1.515625zm-5.390625 -2.65625l5.40625 0q-0.109375 -1.21875 -0.625 -1.828125q-0.78125 -0.953125 -2.03125 -0.953125q-1.125 0 -1.90625 0.765625q-0.765625 0.75 -0.84375 2.015625zm9.125717 5.765625l0 -9.671875l1.46875 0l0 1.46875q0.5625 -1.03125 1.03125 -1.359375q0.484375 -0.328125 1.0625 -0.328125q0.828125 0 1.6875 0.53125l-0.5625 1.515625q-0.609375 -0.359375 -1.203125 -0.359375q-0.546875 0 -0.96875 0.328125q-0.421875 0.328125 -0.609375 0.890625q-0.28125 0.875 -0.28125 1.921875l0 5.0625l-1.625 0z" fill-rule="nonzero"></path><path fill="#000000" fill-opacity="0.0" d="m601.084 161.76378l252.72443 284.44092" fill-rule="evenodd"></path><path stroke="#d5a6bd" stroke-width="4.0" stroke-linejoin="round" stroke-linecap="butt" d="m601.084 161.76378l252.72443 284.44092" fill-rule="evenodd"></path><path fill="#000000" fill-opacity="0.0" d="m392.14172 163.18373l195.24408 -1.4173279" fill-rule="evenodd"></path><path stroke="#595959" stroke-width="4.0" stroke-linejoin="round" stroke-linecap="butt" d="m392.14172 163.18373l195.24408 -1.4173279" fill-rule="evenodd"></path><path fill="#eeeeee" d="m587.3832 161.76378l0 0c0 -4.2095337 3.0670776 -7.62204 6.850403 -7.62204l0 0c1.8168335 0 3.5592651 0.8030243 4.843994 2.2324371c1.284668 1.4294128 2.0064087 3.3681183 2.0064087 5.3896027l0 0c0 4.2095337 -3.0670166 7.622055 -6.850403 7.622055l0 0c-3.7833252 0 -6.850403 -3.4125214 -6.850403 -7.622055z" fill-rule="evenodd"></path><path fill="#000000" fill-opacity="0.0" d="m594.2336 154.14174l0 15.244095m-6.850403 -7.622055l13.700806 0" fill-rule="evenodd"></path><path fill="#000000" fill-opacity="0.0" d="m587.3832 161.76378l0 0c0 -4.2095337 3.0670776 -7.62204 6.850403 -7.62204l0 0c1.8168335 0 3.5592651 0.8030243 4.843994 2.2324371c1.284668 1.4294128 2.0064087 3.3681183 2.0064087 5.3896027l0 0c0 4.2095337 -3.0670166 7.622055 -6.850403 7.622055l0 0c-3.7833252 0 -6.850403 -3.4125214 -6.850403 -7.622055z" fill-rule="evenodd"></path><path stroke="#595959" stroke-width="1.0" stroke-linejoin="round" stroke-linecap="butt" d="m594.2336 154.14174l0 15.244095m-6.850403 -7.622055l13.700806 0" fill-rule="evenodd"></path><path stroke="#595959" stroke-width="1.0" stroke-linejoin="round" stroke-linecap="butt" d="m587.3832 161.76378l0 0c0 -4.2095337 3.0670776 -7.62204 6.850403 -7.62204l0 0c1.8168335 0 3.5592651 0.8030243 4.843994 2.2324371c1.284668 1.4294128 2.0064087 3.3681183 2.0064087 5.3896027l0 0c0 4.2095337 -3.0670166 7.622055 -6.850403 7.622055l0 0c-3.7833252 0 -6.850403 -3.4125214 -6.850403 -7.622055z" fill-rule="evenodd"></path><path fill="#eeeeee" d="m325.36615 409.3231l0 0c0 -6.7783203 5.4949036 -12.273224 12.273193 -12.273224l90.193756 0c3.2550354 0 6.3768005 1.2930603 8.678467 3.594757c2.3016663 2.3016663 3.5947266 5.423401 3.5947266 8.678467l0 49.09137c0 6.77829 -5.4949036 12.273193 -12.273193 12.273193l-90.193756 0c-6.77829 0 -12.273193 -5.4949036 -12.273193 -12.273193z" fill-rule="evenodd"></path><path stroke="#595959" stroke-width="1.0" stroke-linejoin="round" stroke-linecap="butt" d="m325.36615 409.3231l0 0c0 -6.7783203 5.4949036 -12.273224 12.273193 -12.273224l90.193756 0c3.2550354 0 6.3768005 1.2930603 8.678467 3.594757c2.3016663 2.3016663 3.5947266 5.423401 3.5947266 8.678467l0 49.09137c0 6.77829 -5.4949036 12.273193 -12.273193 12.273193l-90.193756 0c-6.77829 0 -12.273193 -5.4949036 -12.273193 -12.273193z" fill-rule="evenodd"></path><path fill="#000000" d="m339.4296 440.78876l0 -13.359375l5.921875 0q1.78125 0 2.703125 0.359375q0.9375 0.359375 1.484375 1.28125q0.5625 0.90625 0.5625 2.015625q0 1.40625 -0.921875 2.390625q-0.921875 0.96875 -2.84375 1.234375q0.703125 0.34375 1.078125 0.671875q0.765625 0.703125 1.453125 1.765625l2.328125 3.640625l-2.21875 0l-1.765625 -2.78125q-0.78125 -1.203125 -1.28125 -1.828125q-0.5 -0.640625 -0.90625 -0.890625q-0.390625 -0.265625 -0.796875 -0.359375q-0.296875 -0.078125 -0.984375 -0.078125l-2.046875 0l0 5.9375l-1.765625 0zm1.765625 -7.453125l3.796875 0q1.21875 0 1.890625 -0.25q0.6875 -0.265625 1.046875 -0.8125q0.359375 -0.546875 0.359375 -1.1875q0 -0.953125 -0.6875 -1.5625q-0.6875 -0.609375 -2.1875 -0.609375l-4.21875 0l0 4.421875zm18.09793 4.34375l1.6875 0.203125q-0.40625 1.484375 -1.484375 2.3125q-1.078125 0.8125 -2.765625 0.8125q-2.125 0 -3.375 -1.296875q-1.234375 -1.3125 -1.234375 -3.671875q0 -2.453125 1.25 -3.796875q1.265625 -1.34375 3.265625 -1.34375q1.9375 0 3.15625 1.328125q1.234375 1.3125 1.234375 3.703125q0 0.15625 0 0.4375l-7.21875 0q0.09375 1.59375 0.90625 2.453125q0.8125 0.84375 2.015625 0.84375q0.90625 0 1.546875 -0.46875q0.640625 -0.484375 1.015625 -1.515625zm-5.390625 -2.65625l5.40625 0q-0.109375 -1.21875 -0.625 -1.828125q-0.78125 -0.953125 -2.03125 -0.953125q-1.125 0 -1.90625 0.765625q-0.765625 0.75 -0.84375 2.015625zm8.828857 6.5625l1.59375 0.234375q0.109375 0.75 0.5625 1.078125q0.609375 0.453125 1.671875 0.453125q1.140625 0 1.75 -0.453125q0.625 -0.453125 0.84375 -1.265625q0.125 -0.5 0.109375 -2.109375q-1.0625 1.265625 -2.671875 1.265625q-2.0 0 -3.09375 -1.4375q-1.09375 -1.4375 -1.09375 -3.453125q0 -1.390625 0.5 -2.5625q0.515625 -1.171875 1.453125 -1.796875q0.953125 -0.640625 2.25 -0.640625q1.703125 0 2.8125 1.375l0 -1.15625l1.515625 0l0 8.359375q0 2.265625 -0.46875 3.203125q-0.453125 0.9375 -1.453125 1.484375q-0.984375 0.546875 -2.453125 0.546875q-1.71875 0 -2.796875 -0.78125q-1.0625 -0.765625 -1.03125 -2.34375zm1.359375 -5.8125q0 1.90625 0.75 2.78125q0.765625 0.875 1.90625 0.875q1.125 0 1.890625 -0.859375q0.765625 -0.875 0.765625 -2.734375q0 -1.78125 -0.796875 -2.671875q-0.78125 -0.90625 -1.890625 -0.90625q-1.09375 0 -1.859375 0.890625q-0.765625 0.875 -0.765625 2.625zm9.328827 -6.453125l0 -1.890625l1.640625 0l0 1.890625l-1.640625 0zm0 11.46875l0 -9.671875l1.640625 0l0 9.671875l-1.640625 0zm3.4885864 -2.890625l1.625 -0.25q0.125 0.96875 0.75 1.5q0.625 0.515625 1.75 0.515625q1.125 0 1.671875 -0.453125q0.546875 -0.46875 0.546875 -1.09375q0 -0.546875 -0.484375 -0.875q-0.328125 -0.21875 -1.671875 -0.546875q-1.8125 -0.46875 -2.515625 -0.796875q-0.6875 -0.328125 -1.046875 -0.90625q-0.359375 -0.59375 -0.359375 -1.3125q0 -0.640625 0.296875 -1.1875q0.296875 -0.5625 0.8125 -0.921875q0.375 -0.28125 1.03125 -0.46875q0.671875 -0.203125 1.421875 -0.203125q1.140625 0 2.0 0.328125q0.859375 0.328125 1.265625 0.890625q0.421875 0.5625 0.578125 1.5l-1.609375 0.21875q-0.109375 -0.75 -0.640625 -1.171875q-0.515625 -0.421875 -1.46875 -0.421875q-1.140625 0 -1.625 0.375q-0.46875 0.375 -0.46875 0.875q0 0.3125 0.1875 0.578125q0.203125 0.265625 0.640625 0.4375q0.234375 0.09375 1.4375 0.421875q1.75 0.453125 2.4375 0.75q0.6875 0.296875 1.078125 0.859375q0.390625 0.5625 0.390625 1.40625q0 0.828125 -0.484375 1.546875q-0.46875 0.71875 -1.375 1.125q-0.90625 0.390625 -2.046875 0.390625q-1.875 0 -2.875 -0.78125q-0.984375 -0.78125 -1.25 -2.328125zm13.5625 1.421875l0.234375 1.453125q-0.6875 0.140625 -1.234375 0.140625q-0.890625 0 -1.390625 -0.28125q-0.484375 -0.28125 -0.6875 -0.734375q-0.203125 -0.46875 -0.203125 -1.9375l0 -5.578125l-1.203125 0l0 -1.265625l1.203125 0l0 -2.390625l1.625 -0.984375l0 3.375l1.65625 0l0 1.265625l-1.65625 0l0 5.671875q0 0.6875 0.078125 0.890625q0.09375 0.203125 0.28125 0.328125q0.203125 0.109375 0.578125 0.109375q0.265625 0 0.71875 -0.0625zm1.5895386 1.46875l0 -9.671875l1.46875 0l0 1.46875q0.5625 -1.03125 1.03125 -1.359375q0.484375 -0.328125 1.0625 -0.328125q0.828125 0 1.6875 0.53125l-0.5625 1.515625q-0.609375 -0.359375 -1.203125 -0.359375q-0.546875 0 -0.96875 0.328125q-0.421875 0.328125 -0.609375 0.890625q-0.28125 0.875 -0.28125 1.921875l0 5.0625l-1.625 0zm12.540802 -1.1875q-0.921875 0.765625 -1.765625 1.09375q-0.828125 0.3125 -1.796875 0.3125q-1.59375 0 -2.453125 -0.78125q-0.859375 -0.78125 -0.859375 -1.984375q0 -0.71875 0.328125 -1.296875q0.328125 -0.59375 0.84375 -0.9375q0.53125 -0.359375 1.1875 -0.546875q0.46875 -0.125 1.453125 -0.25q1.984375 -0.234375 2.921875 -0.5625q0.015625 -0.34375 0.015625 -0.421875q0 -1.0 -0.46875 -1.421875q-0.625 -0.546875 -1.875 -0.546875q-1.15625 0 -1.703125 0.40625q-0.546875 0.40625 -0.8125 1.421875l-1.609375 -0.21875q0.21875 -1.015625 0.71875 -1.640625q0.5 -0.640625 1.453125 -0.984375q0.953125 -0.34375 2.1875 -0.34375q1.25 0 2.015625 0.296875q0.78125 0.28125 1.140625 0.734375q0.375 0.4375 0.515625 1.109375q0.078125 0.421875 0.078125 1.515625l0 2.1875q0 2.28125 0.109375 2.890625q0.109375 0.59375 0.40625 1.15625l-1.703125 0q-0.265625 -0.515625 -0.328125 -1.1875zm-0.140625 -3.671875q-0.890625 0.375 -2.671875 0.625q-1.015625 0.140625 -1.4375 0.328125q-0.421875 0.1875 -0.65625 0.53125q-0.21875 0.34375 -0.21875 0.78125q0 0.65625 0.5 1.09375q0.5 0.4375 1.453125 0.4375q0.9375 0 1.671875 -0.40625q0.75 -0.421875 1.09375 -1.140625q0.265625 -0.5625 0.265625 -1.640625l0 -0.609375zm4.1882324 4.859375l0 -9.671875l1.46875 0l0 1.46875q0.5625 -1.03125 1.03125 -1.359375q0.484375 -0.328125 1.0625 -0.328125q0.828125 0 1.6875 0.53125l-0.5625 1.515625q-0.609375 -0.359375 -1.203125 -0.359375q-0.546875 0 -0.96875 0.328125q-0.421875 0.328125 -0.609375 0.890625q-0.28125 0.875 -0.28125 1.921875l0 5.0625l-1.625 0z" fill-rule="nonzero"></path><path fill="#eeeeee" d="m512.9055 251.26596l0 0c0 -9.422653 21.467407 -17.061234 47.94879 -17.061234c26.481445 0 47.948853 7.6385803 47.948853 17.061234l0 68.244965c0 9.422668 -21.467407 17.061249 -47.948853 17.061249c-26.481384 0 -47.94879 -7.6385803 -47.94879 -17.061249z" fill-rule="evenodd"></path><path fill="#000000" fill-opacity="0.0" d="m608.80316 251.26596l0 0c0 9.422668 -21.467407 17.061249 -47.948853 17.061249c-26.481384 0 -47.94879 -7.6385803 -47.94879 -17.061249" fill-rule="evenodd"></path><path fill="#000000" fill-opacity="0.0" d="m512.9055 251.26596l0 0c0 -9.422653 21.467407 -17.061234 47.94879 -17.061234c26.481445 0 47.948853 7.6385803 47.948853 17.061234l0 68.244965c0 9.422668 -21.467407 17.061249 -47.948853 17.061249c-26.481384 0 -47.94879 -7.6385803 -47.94879 -17.061249z" fill-rule="evenodd"></path><path stroke="#595959" stroke-width="1.0" stroke-linejoin="round" stroke-linecap="butt" d="m608.80316 251.26596l0 0c0 9.422668 -21.467407 17.061249 -47.948853 17.061249c-26.481384 0 -47.94879 -7.6385803 -47.94879 -17.061249" fill-rule="evenodd"></path><path stroke="#595959" stroke-width="1.0" stroke-linejoin="round" stroke-linecap="butt" d="m512.9055 251.26596l0 0c0 -9.422653 21.467407 -17.061234 47.94879 -17.061234c26.481445 0 47.948853 7.6385803 47.948853 17.061234l0 68.244965c0 9.422668 -21.467407 17.061249 -47.948853 17.061249c-26.481384 0 -47.94879 -7.6385803 -47.94879 -17.061249z" fill-rule="evenodd"></path><path fill="#000000" d="m538.4744 300.83908l0 -13.359375l5.921875 0q1.78125 0 2.703125 0.359375q0.9375 0.359375 1.484375 1.28125q0.5625 0.90625 0.5625 2.015625q0 1.40625 -0.921875 2.390625q-0.921875 0.96875 -2.84375 1.234375q0.703125 0.34375 1.078125 0.671875q0.765625 0.703125 1.453125 1.765625l2.328125 3.640625l-2.21875 0l-1.765625 -2.78125q-0.78125 -1.203125 -1.28125 -1.828125q-0.5 -0.640625 -0.90625 -0.890625q-0.390625 -0.265625 -0.796875 -0.359375q-0.296875 -0.078125 -0.984375 -0.078125l-2.046875 0l0 5.9375l-1.765625 0zm1.765625 -7.453125l3.796875 0q1.21875 0 1.890625 -0.25q0.6875 -0.265625 1.046875 -0.8125q0.359375 -0.546875 0.359375 -1.1875q0 -0.953125 -0.6875 -1.5625q-0.6875 -0.609375 -2.1875 -0.609375l-4.21875 0l0 4.421875zm18.097961 4.34375l1.6875 0.203125q-0.40625 1.484375 -1.484375 2.3125q-1.078125 0.8125 -2.765625 0.8125q-2.125 0 -3.375 -1.296875q-1.234375 -1.3125 -1.234375 -3.671875q0 -2.453125 1.25 -3.796875q1.265625 -1.34375 3.265625 -1.34375q1.9375 0 3.15625 1.328125q1.234375 1.3125 1.234375 3.703125q0 0.15625 0 0.4375l-7.21875 0q0.09375 1.59375 0.90625 2.453125q0.8125 0.84375 2.015625 0.84375q0.90625 0 1.546875 -0.46875q0.640625 -0.484375 1.015625 -1.515625zm-5.390625 -2.65625l5.40625 0q-0.109375 -1.21875 -0.625 -1.828125q-0.78125 -0.953125 -2.03125 -0.953125q-1.125 0 -1.90625 0.765625q-0.765625 0.75 -0.84375 2.015625zm15.406921 5.765625l0 -1.21875q-0.90625 1.4375 -2.703125 1.4375q-1.15625 0 -2.125 -0.640625q-0.96875 -0.640625 -1.5 -1.78125q-0.53125 -1.140625 -0.53125 -2.625q0 -1.453125 0.484375 -2.625q0.484375 -1.1875 1.4375 -1.8125q0.96875 -0.625 2.171875 -0.625q0.875 0 1.546875 0.375q0.6875 0.359375 1.109375 0.953125l0 -4.796875l1.640625 0l0 13.359375l-1.53125 0zm-5.171875 -4.828125q0 1.859375 0.78125 2.78125q0.78125 0.921875 1.84375 0.921875q1.078125 0 1.828125 -0.875q0.75 -0.890625 0.75 -2.6875q0 -1.984375 -0.765625 -2.90625q-0.765625 -0.9375 -1.890625 -0.9375q-1.078125 0 -1.8125 0.890625q-0.734375 0.890625 -0.734375 2.8125zm9.281982 -6.640625l0 -1.890625l1.640625 0l0 1.890625l-1.640625 0zm0 11.46875l0 -9.671875l1.640625 0l0 9.671875l-1.640625 0zm3.4885864 -2.890625l1.625 -0.25q0.125 0.96875 0.75 1.5q0.625 0.515625 1.75 0.515625q1.125 0 1.671875 -0.453125q0.546875 -0.46875 0.546875 -1.09375q0 -0.546875 -0.484375 -0.875q-0.328125 -0.21875 -1.671875 -0.546875q-1.8125 -0.46875 -2.515625 -0.796875q-0.6875 -0.328125 -1.046875 -0.90625q-0.359375 -0.59375 -0.359375 -1.3125q0 -0.640625 0.296875 -1.1875q0.296875 -0.5625 0.8125 -0.921875q0.375 -0.28125 1.03125 -0.46875q0.671875 -0.203125 1.421875 -0.203125q1.140625 0 2.0 0.328125q0.859375 0.328125 1.265625 0.890625q0.421875 0.5625 0.578125 1.5l-1.609375 0.21875q-0.109375 -0.75 -0.640625 -1.171875q-0.515625 -0.421875 -1.46875 -0.421875q-1.140625 0 -1.625 0.375q-0.46875 0.375 -0.46875 0.875q0 0.3125 0.1875 0.578125q0.203125 0.265625 0.640625 0.4375q0.234375 0.09375 1.4375 0.421875q1.75 0.453125 2.4375 0.75q0.6875 0.296875 1.078125 0.859375q0.390625 0.5625 0.390625 1.40625q0 0.828125 -0.484375 1.546875q-0.46875 0.71875 -1.375 1.125q-0.90625 0.390625 -2.046875 0.390625q-1.875 0 -2.875 -0.78125q-0.984375 -0.78125 -1.25 -2.328125z" fill-rule="nonzero"></path><path fill="#000000" fill-opacity="0.0" d="m417.84778 208.97638l95.055115 76.409454" fill-rule="evenodd"></path><path stroke="#595959" stroke-width="2.0" stroke-linejoin="round" stroke-linecap="butt" d="m417.84778 208.97638l85.70224 68.891205" fill-rule="evenodd"></path><path fill="#595959" stroke="#595959" stroke-width="2.0" stroke-linecap="butt" d="m501.48035 280.44232l9.143707 3.1116943l-5.0043335 -8.261169z" fill-rule="evenodd"></path><path fill="#efefef" d="m503.48425 409.3231l0 0c0 -6.7783203 5.4949036 -12.273224 12.273193 -12.273224l90.193726 0c3.255066 0 6.376831 1.2930603 8.678467 3.594757c2.3016968 2.3016663 3.5947876 5.423401 3.5947876 8.678467l0 49.09137c0 6.77829 -5.494934 12.273193 -12.273254 12.273193l-90.193726 0c-6.77829 0 -12.273193 -5.4949036 -12.273193 -12.273193z" fill-rule="evenodd"></path><path stroke="#595959" stroke-width="1.0" stroke-linejoin="round" stroke-linecap="butt" d="m503.48425 409.3231l0 0c0 -6.7783203 5.4949036 -12.273224 12.273193 -12.273224l90.193726 0c3.255066 0 6.376831 1.2930603 8.678467 3.594757c2.3016968 2.3016663 3.5947876 5.423401 3.5947876 8.678467l0 49.09137c0 6.77829 -5.494934 12.273193 -12.273254 12.273193l-90.193726 0c-6.77829 0 -12.273193 -5.4949036 -12.273193 -12.273193z" fill-rule="evenodd"></path><path fill="#000000" d="m517.4696 440.78876l0 -13.359375l2.65625 0l3.15625 9.453125q0.4375 1.328125 0.640625 1.984375q0.234375 -0.734375 0.703125 -2.140625l3.203125 -9.296875l2.375 0l0 13.359375l-1.703125 0l0 -11.171875l-3.875 11.171875l-1.59375 0l-3.859375 -11.375l0 11.375l-1.703125 0zm21.697021 -1.1875q-0.921875 0.765625 -1.765625 1.09375q-0.828125 0.3125 -1.796875 0.3125q-1.59375 0 -2.453125 -0.78125q-0.859375 -0.78125 -0.859375 -1.984375q0 -0.71875 0.328125 -1.296875q0.328125 -0.59375 0.84375 -0.9375q0.53125 -0.359375 1.1875 -0.546875q0.46875 -0.125 1.453125 -0.25q1.984375 -0.234375 2.921875 -0.5625q0.015625 -0.34375 0.015625 -0.421875q0 -1.0 -0.46875 -1.421875q-0.625 -0.546875 -1.875 -0.546875q-1.15625 0 -1.703125 0.40625q-0.546875 0.40625 -0.8125 1.421875l-1.609375 -0.21875q0.21875 -1.015625 0.71875 -1.640625q0.5 -0.640625 1.453125 -0.984375q0.953125 -0.34375 2.1875 -0.34375q1.25 0 2.015625 0.296875q0.78125 0.28125 1.140625 0.734375q0.375 0.4375 0.515625 1.109375q0.078125 0.421875 0.078125 1.515625l0 2.1875q0 2.28125 0.109375 2.890625q0.109375 0.59375 0.40625 1.15625l-1.703125 0q-0.265625 -0.515625 -0.328125 -1.1875zm-0.140625 -3.671875q-0.890625 0.375 -2.671875 0.625q-1.015625 0.140625 -1.4375 0.328125q-0.421875 0.1875 -0.65625 0.53125q-0.21875 0.34375 -0.21875 0.78125q0 0.65625 0.5 1.09375q0.5 0.4375 1.453125 0.4375q0.9375 0 1.671875 -0.40625q0.75 -0.421875 1.09375 -1.140625q0.265625 -0.5625 0.265625 -1.640625l0 -0.609375zm4.2038574 4.859375l0 -9.671875l1.46875 0l0 1.375q1.0625 -1.59375 3.078125 -1.59375q0.875 0 1.609375 0.3125q0.734375 0.3125 1.09375 0.828125q0.375 0.5 0.515625 1.203125q0.09375 0.453125 0.09375 1.59375l0 5.953125l-1.640625 0l0 -5.890625q0 -1.0 -0.203125 -1.484375q-0.1875 -0.5 -0.671875 -0.796875q-0.484375 -0.296875 -1.140625 -0.296875q-1.046875 0 -1.8125 0.671875q-0.75 0.65625 -0.75 2.515625l0 5.28125l-1.640625 0zm16.688232 -1.1875q-0.921875 0.765625 -1.765625 1.09375q-0.828125 0.3125 -1.796875 0.3125q-1.59375 0 -2.453125 -0.78125q-0.859375 -0.78125 -0.859375 -1.984375q0 -0.71875 0.328125 -1.296875q0.328125 -0.59375 0.84375 -0.9375q0.53125 -0.359375 1.1875 -0.546875q0.46875 -0.125 1.453125 -0.25q1.984375 -0.234375 2.921875 -0.5625q0.015625 -0.34375 0.015625 -0.421875q0 -1.0 -0.46875 -1.421875q-0.625 -0.546875 -1.875 -0.546875q-1.15625 0 -1.703125 0.40625q-0.546875 0.40625 -0.8125 1.421875l-1.609375 -0.21875q0.21875 -1.015625 0.71875 -1.640625q0.5 -0.640625 1.453125 -0.984375q0.953125 -0.34375 2.1875 -0.34375q1.25 0 2.015625 0.296875q0.78125 0.28125 1.140625 0.734375q0.375 0.4375 0.515625 1.109375q0.078125 0.421875 0.078125 1.515625l0 2.1875q0 2.28125 0.109375 2.890625q0.109375 0.59375 0.40625 1.15625l-1.703125 0q-0.265625 -0.515625 -0.328125 -1.1875zm-0.140625 -3.671875q-0.890625 0.375 -2.671875 0.625q-1.015625 0.140625 -1.4375 0.328125q-0.421875 0.1875 -0.65625 0.53125q-0.21875 0.34375 -0.21875 0.78125q0 0.65625 0.5 1.09375q0.5 0.4375 1.453125 0.4375q0.9375 0 1.671875 -0.40625q0.75 -0.421875 1.09375 -1.140625q0.265625 -0.5625 0.265625 -1.640625l0 -0.609375zm3.8912964 5.65625l1.59375 0.234375q0.109375 0.75 0.5625 1.078125q0.609375 0.453125 1.671875 0.453125q1.140625 0 1.75 -0.453125q0.625 -0.453125 0.84375 -1.265625q0.125 -0.5 0.109375 -2.109375q-1.0625 1.265625 -2.671875 1.265625q-2.0 0 -3.09375 -1.4375q-1.09375 -1.4375 -1.09375 -3.453125q0 -1.390625 0.5 -2.5625q0.515625 -1.171875 1.453125 -1.796875q0.953125 -0.640625 2.25 -0.640625q1.703125 0 2.8125 1.375l0 -1.15625l1.515625 0l0 8.359375q0 2.265625 -0.46875 3.203125q-0.453125 0.9375 -1.453125 1.484375q-0.984375 0.546875 -2.453125 0.546875q-1.71875 0 -2.796875 -0.78125q-1.0625 -0.765625 -1.03125 -2.34375zm1.359375 -5.8125q0 1.90625 0.75 2.78125q0.765625 0.875 1.90625 0.875q1.125 0 1.890625 -0.859375q0.765625 -0.875 0.765625 -2.734375q0 -1.78125 -0.796875 -2.671875q-0.78125 -0.90625 -1.890625 -0.90625q-1.09375 0 -1.859375 0.890625q-0.765625 0.875 -0.765625 2.625zm15.953857 1.90625l1.6875 0.203125q-0.40625 1.484375 -1.484375 2.3125q-1.078125 0.8125 -2.765625 0.8125q-2.125 0 -3.375 -1.296875q-1.234375 -1.3125 -1.234375 -3.671875q0 -2.453125 1.25 -3.796875q1.265625 -1.34375 3.265625 -1.34375q1.9375 0 3.15625 1.328125q1.234375 1.3125 1.234375 3.703125q0 0.15625 0 0.4375l-7.21875 0q0.09375 1.59375 0.90625 2.453125q0.8125 0.84375 2.015625 0.84375q0.90625 0 1.546875 -0.46875q0.640625 -0.484375 1.015625 -1.515625zm-5.390625 -2.65625l5.40625 0q-0.109375 -1.21875 -0.625 -1.828125q-0.78125 -0.953125 -2.03125 -0.953125q-1.125 0 -1.90625 0.765625q-0.765625 0.75 -0.84375 2.015625zm9.125732 5.765625l0 -9.671875l1.46875 0l0 1.46875q0.5625 -1.03125 1.03125 -1.359375q0.484375 -0.328125 1.0625 -0.328125q0.828125 0 1.6875 0.53125l-0.5625 1.515625q-0.609375 -0.359375 -1.203125 -0.359375q-0.546875 0 -0.96875 0.328125q-0.421875 0.328125 -0.609375 0.890625q-0.28125 0.875 -0.28125 1.921875l0 5.0625l-1.625 0z" fill-rule="nonzero"></path><path fill="#000000" fill-opacity="0.0" d="m560.8543 336.57217l0 60.472443" fill-rule="evenodd"></path><path stroke="#595959" stroke-width="2.0" stroke-linejoin="round" stroke-linecap="butt" d="m560.8543 348.57217l0 36.472443" fill-rule="evenodd"></path><path fill="#595959" stroke="#595959" stroke-width="2.0" stroke-linecap="butt" d="m564.1578 348.57217l-3.3034668 -9.076202l-3.3034668 9.076202z" fill-rule="evenodd"></path><path fill="#595959" stroke="#595959" stroke-width="2.0" stroke-linecap="butt" d="m557.55084 385.04462l3.3034668 9.076202l3.3034668 -9.076202z" fill-rule="evenodd"></path><path fill="#eeeeee" d="m34.824146 455.7693l0 0c0 -7.0334473 5.701729 -12.735168 12.735165 -12.735168l88.6714 0c3.3775787 0 6.6168213 1.3417358 9.005127 3.7300415c2.3883057 2.3883057 3.7300415 5.6275635 3.7300415 9.005127l0 50.939117c0 7.0334167 -5.701721 12.735138 -12.735168 12.735138l-88.6714 0c-7.033436 0 -12.735165 -5.701721 -12.735165 -12.735138z" fill-rule="evenodd"></path><path stroke="#595959" stroke-width="1.0" stroke-linejoin="round" stroke-linecap="butt" d="m34.824146 455.7693l0 0c0 -7.0334473 5.701729 -12.735168 12.735165 -12.735168l88.6714 0c3.3775787 0 6.6168213 1.3417358 9.005127 3.7300415c2.3883057 2.3883057 3.7300415 5.6275635 3.7300415 9.005127l0 50.939117c0 7.0334167 -5.701721 12.735138 -12.735168 12.735138l-88.6714 0c-7.033436 0 -12.735165 -5.701721 -12.735165 -12.735138z" fill-rule="evenodd"></path><path fill="#000000" d="m51.319775 477.15884l-3.53125 -13.359375l1.8125 0l2.03125 8.765625q0.328125 1.375 0.5625 2.71875q0.5 -2.140625 0.59375 -2.46875l2.546875 -9.015625l2.125 0l1.921875 6.765625q0.71875 2.515625 1.03125 4.71875q0.265625 -1.265625 0.671875 -2.890625l2.09375 -8.59375l1.7812462 0l-3.6718712 13.359375l-1.703125 0l-2.8125 -10.171875q-0.359375 -1.28125 -0.421875 -1.5625q-0.203125 0.90625 -0.390625 1.5625l-2.828125 10.171875l-1.8125 0zm21.702404 -3.109375l1.6875 0.203125q-0.40625 1.484375 -1.484375 2.3125q-1.078125 0.8125 -2.765625 0.8125q-2.125 0 -3.375 -1.296875q-1.234375 -1.3125 -1.234375 -3.671875q0 -2.453125 1.25 -3.796875q1.265625 -1.34375 3.265625 -1.34375q1.9375 0 3.15625 1.328125q1.234375 1.3125 1.234375 3.703125q0 0.15625 0 0.4375l-7.21875 0q0.09375 1.59375 0.90625 2.453125q0.8125 0.84375 2.015625 0.84375q0.90625 0 1.546875 -0.46875q0.640625 -0.484375 1.015625 -1.515625zm-5.390625 -2.65625l5.40625 0q-0.109375 -1.21875 -0.625 -1.828125q-0.78125 -0.953125 -2.03125 -0.953125q-1.125 0 -1.90625 0.765625q-0.765625 0.75 -0.84375 2.015625zm10.641342 5.765625l-1.515625 0l0 -13.359375l1.640625 0l0 4.765625q1.046875 -1.296875 2.65625 -1.296875q0.890625 0 1.6875 0.359375q0.796875 0.359375 1.3125 1.015625q0.515625 0.640625 0.796875 1.5625q0.296875 0.921875 0.296875 1.96875q0 2.484375 -1.234375 3.84375q-1.21875 1.359375 -2.953125 1.359375q-1.703125 0 -2.6875 -1.4375l0 1.21875zm-0.015625 -4.90625q0 1.734375 0.484375 2.515625q0.765625 1.265625 2.09375 1.265625q1.078125 0 1.859375 -0.9375q0.78125 -0.9375 0.78125 -2.78125q0 -1.890625 -0.75 -2.796875q-0.75 -0.90625 -1.828125 -0.90625q-1.0625 0 -1.859375 0.9375q-0.78125 0.9375 -0.78125 2.703125z" fill-rule="nonzero"></path><path fill="#000000" d="m49.0854 499.15884l0 -13.359375l9.015625 0l0 1.578125l-7.25 0l0 4.140625l6.265625 0l0 1.578125l-6.265625 0l0 6.0625l-1.765625 0zm11.083481 0l0 -9.671875l1.46875 0l0 1.46875q0.5625 -1.03125 1.03125 -1.359375q0.484375 -0.328125 1.0625 -0.328125q0.8281212 0 1.6874962 0.53125l-0.5625 1.515625q-0.609375 -0.359375 -1.2031212 -0.359375q-0.546875 0 -0.96875 0.328125q-0.421875 0.328125 -0.609375 0.890625q-0.28125 0.875 -0.28125 1.921875l0 5.0625l-1.625 0zm5.618923 -4.84375q0 -2.6875 1.484375 -3.96875q1.25 -1.078125 3.046875 -1.078125q2.0 0 3.265625 1.3125q1.265625 1.296875 1.265625 3.609375q0 1.859375 -0.5625 2.9375q-0.5625 1.0625 -1.640625 1.65625q-1.0625 0.59375 -2.328125 0.59375q-2.03125 0 -3.28125 -1.296875q-1.25 -1.3125 -1.25 -3.765625zm1.6875 0q0 1.859375 0.796875 2.796875q0.8125 0.921875 2.046875 0.921875q1.21875 0 2.03125 -0.921875q0.8125 -0.9375 0.8125 -2.84375q0 -1.796875 -0.8125 -2.71875q-0.8125 -0.921875 -2.03125 -0.921875q-1.234375 0 -2.046875 0.921875q-0.796875 0.90625 -0.796875 2.765625zm9.297592 4.84375l0 -9.671875l1.46875 0l0 1.375q1.0625 -1.59375 3.078125 -1.59375q0.875 0 1.609375 0.3125q0.734375 0.3125 1.09375 0.828125q0.375 0.5 0.515625 1.203125q0.09375 0.453125 0.09375 1.59375l0 5.953125l-1.640625 0l0 -5.890625q0 -1.0 -0.203125 -1.484375q-0.1875 -0.5 -0.671875 -0.796875q-0.484375 -0.296875 -1.140625 -0.296875q-1.046875 0 -1.8125 0.671875q-0.75 0.65625 -0.75 2.515625l0 5.28125l-1.640625 0zm13.953842 -1.46875l0.234375 1.453125q-0.6875 0.140625 -1.234375 0.140625q-0.890625 0 -1.390625 -0.28125q-0.484375 -0.28125 -0.6875 -0.734375q-0.203125 -0.46875 -0.203125 -1.9375l0 -5.578125l-1.203125 0l0 -1.265625l1.203125 0l0 -2.390625l1.625 -0.984375l0 3.375l1.65625 0l0 1.265625l-1.65625 0l0 5.671875q0 0.6875 0.078125 0.890625q0.09375 0.203125 0.28125 0.328125q0.203125 0.109375 0.578125 0.109375q0.265625 0 0.71875 -0.0625zm8.230179 -1.640625l1.6875 0.203125q-0.40625 1.484375 -1.484375 2.3125q-1.078125 0.8125 -2.765625 0.8125q-2.125 0 -3.375 -1.296875q-1.234375 -1.3125 -1.234375 -3.671875q0 -2.453125 1.25 -3.796875q1.265625 -1.34375 3.265625 -1.34375q1.9375 0 3.15625 1.328125q1.234375 1.3125 1.234375 3.703125q0 0.15625 0 0.4375l-7.21875 0q0.09375 1.59375 0.90625 2.453125q0.8125 0.84375 2.015625 0.84375q0.90625 0 1.546875 -0.46875q0.640625 -0.484375 1.015625 -1.515625zm-5.390625 -2.65625l5.40625 0q-0.109375 -1.21875 -0.625 -1.828125q-0.78125 -0.953125 -2.03125 -0.953125q-1.125 0 -1.90625 0.765625q-0.765625 0.75 -0.84375 2.015625zm9.141342 5.765625l0 -9.671875l1.46875 0l0 1.375q1.0625 -1.59375 3.078125 -1.59375q0.875 0 1.609375 0.3125q0.734375 0.3125 1.09375 0.828125q0.375 0.5 0.515625 1.203125q0.09375 0.453125 0.09375 1.59375l0 5.953125l-1.640625 0l0 -5.890625q0 -1.0 -0.203125 -1.484375q-0.1875 -0.5 -0.671875 -0.796875q-0.484375 -0.296875 -1.140625 -0.296875q-1.046875 0 -1.8125 0.671875q-0.75 0.65625 -0.75 2.515625l0 5.28125l-1.640625 0zm16.641342 0l0 -1.21875q-0.90625 1.4375 -2.703125 1.4375q-1.15625 0 -2.125 -0.640625q-0.96875 -0.640625 -1.5 -1.78125q-0.53125 -1.140625 -0.53125 -2.625q0 -1.453125 0.484375 -2.625q0.484375 -1.1875 1.4375 -1.8125q0.96875 -0.625 2.171875 -0.625q0.875 0 1.546875 0.375q0.6875 0.359375 1.109375 0.953125l0 -4.796875l1.640625 0l0 13.359375l-1.53125 0zm-5.171875 -4.828125q0 1.859375 0.78125 2.78125q0.78125 0.921875 1.84375 0.921875q1.078125 0 1.828125 -0.875q0.75 -0.890625 0.75 -2.6875q0 -1.984375 -0.765625 -2.90625q-0.765625 -0.9375 -1.890625 -0.9375q-1.078125 0 -1.8125 0.890625q-0.734375 0.890625 -0.734375 2.8125z" fill-rule="nonzero"></path><path fill="#000000" fill-opacity="0.0" d="m148.96588 481.23883l176.40945 -47.370056" fill-rule="evenodd"></path><path stroke="#595959" stroke-width="2.0" stroke-linejoin="round" stroke-linecap="butt" d="m160.55533 478.1268l153.23056 -41.145996" fill-rule="evenodd"></path><path fill="#595959" stroke="#595959" stroke-width="2.0" stroke-linecap="butt" d="m159.69861 474.93637l-7.908951 5.54422l9.6223755 0.8366699z" fill-rule="evenodd"></path><path fill="#595959" stroke="#595959" stroke-width="2.0" stroke-linecap="butt" d="m314.64258 440.17123l7.908966 -5.54422l-9.6223755 -0.8366394z" fill-rule="evenodd"></path><path fill="#000000" fill-opacity="0.0" d="m866.3609 123.79527l0 0" fill-rule="evenodd"></path><path stroke="#595959" stroke-width="1.0" stroke-linejoin="round" stroke-linecap="butt" d="m866.3609 123.79527l0 0" fill-rule="evenodd"></path><path fill="#000000" fill-opacity="0.0" d="m889.7598 155.07874l0 0" fill-rule="evenodd"></path><path stroke="#595959" stroke-width="1.0" stroke-linejoin="round" stroke-linecap="butt" d="m889.7598 155.07874l0 0" fill-rule="evenodd"></path><path fill="#9fc5e8" d="m34.824146 120.779526l0 0c0 -5.534439 4.486553 -10.020996 10.021 -10.020996l78.69816 0c2.6577377 0 5.2066193 1.0557785 7.0859222 2.9350815c1.879303 1.879303 2.9350739 4.4281845 2.9350739 7.0859146l0 40.083984c0 5.5344543 -4.486557 10.021011 -10.020996 10.021011l-78.69816 0c-5.5344467 0 -10.021 -4.486557 -10.021 -10.021011z" fill-rule="evenodd"></path><path stroke="#595959" stroke-width="1.0" stroke-linejoin="round" stroke-linecap="butt" d="m34.824146 120.779526l0 0c0 -5.534439 4.486553 -10.020996 10.021 -10.020996l78.69816 0c2.6577377 0 5.2066193 1.0557785 7.0859222 2.9350815c1.879303 1.879303 2.9350739 4.4281845 2.9350739 7.0859146l0 40.083984c0 5.5344543 -4.486557 10.021011 -10.020996 10.021011l-78.69816 0c-5.5344467 0 -10.021 -4.486557 -10.021 -10.021011z" fill-rule="evenodd"></path><path fill="#000000" d="m56.962322 134.38214l1.765625 0l0 7.71875q0 2.015625 -0.453125 3.203125q-0.453125 1.1875 -1.640625 1.9375q-1.1875 0.734375 -3.125 0.734375q-1.875 0 -3.078125 -0.640625q-1.1875 -0.65625 -1.703125 -1.875q-0.5 -1.234375 -0.5 -3.359375l0 -7.71875l1.765625 0l0 7.71875q0 1.734375 0.3125 2.5625q0.328125 0.8125 1.109375 1.265625q0.796875 0.453125 1.9375 0.453125q1.953125 0 2.78125 -0.890625q0.828125 -0.890625 0.828125 -3.390625l0 -7.71875zm3.8479462 10.46875l1.625 -0.25q0.125 0.96875 0.75 1.5q0.625 0.515625 1.7499962 0.515625q1.125 0 1.671875 -0.453125q0.546875 -0.46875 0.546875 -1.09375q0 -0.546875 -0.484375 -0.875q-0.328125 -0.21875 -1.671875 -0.546875q-1.8124962 -0.46875 -2.5156212 -0.796875q-0.6875 -0.328125 -1.046875 -0.90625q-0.359375 -0.59375 -0.359375 -1.3125q0 -0.640625 0.296875 -1.1875q0.296875 -0.5625 0.8125 -0.921875q0.375 -0.28125 1.03125 -0.46875q0.671875 -0.203125 1.4218712 -0.203125q1.140625 0 2.0 0.328125q0.859375 0.328125 1.265625 0.890625q0.421875 0.5625 0.578125 1.5l-1.609375 0.21875q-0.109375 -0.75 -0.640625 -1.171875q-0.515625 -0.421875 -1.46875 -0.421875q-1.1406212 0 -1.6249962 0.375q-0.46875 0.375 -0.46875 0.875q0 0.3125 0.1875 0.578125q0.203125 0.265625 0.640625 0.4375q0.234375 0.09375 1.4374962 0.421875q1.75 0.453125 2.4375 0.75q0.6875 0.296875 1.078125 0.859375q0.390625 0.5625 0.390625 1.40625q0 0.828125 -0.484375 1.546875q-0.46875 0.71875 -1.375 1.125q-0.90625 0.390625 -2.046875 0.390625q-1.8749962 0 -2.8749962 -0.78125q-0.984375 -0.78125 -1.25 -2.328125zm16.609371 -0.21875l1.6875 0.203125q-0.40625 1.484375 -1.484375 2.3125q-1.078125 0.8125 -2.765625 0.8125q-2.125 0 -3.375 -1.296875q-1.234375 -1.3125 -1.234375 -3.671875q0 -2.453125 1.25 -3.796875q1.265625 -1.34375 3.265625 -1.34375q1.9375 0 3.15625 1.328125q1.234375 1.3125 1.234375 3.703125q0 0.15625 0 0.4375l-7.21875 0q0.09375 1.59375 0.90625 2.453125q0.8125 0.84375 2.015625 0.84375q0.90625 0 1.546875 -0.46875q0.640625 -0.484375 1.015625 -1.515625zm-5.390625 -2.65625l5.40625 0q-0.109375 -1.21875 -0.625 -1.828125q-0.78125 -0.953125 -2.03125 -0.953125q-1.125 0 -1.90625 0.765625q-0.765625 0.75 -0.84375 2.015625zm9.125717 5.765625l0 -9.671875l1.46875 0l0 1.46875q0.5625 -1.03125 1.03125 -1.359375q0.484375 -0.328125 1.0625 -0.328125q0.828125 0 1.6875 0.53125l-0.5625 1.515625q-0.609375 -0.359375 -1.203125 -0.359375q-0.546875 0 -0.96875 0.328125q-0.421875 0.328125 -0.609375 0.890625q-0.28125 0.875 -0.28125 1.921875l0 5.0625l-1.625 0z" fill-rule="nonzero"></path><path fill="#000000" fill-opacity="0.0" d="m151.26509 251.59055l174.11024 -95.52756" fill-rule="evenodd"></path><path stroke="#b6d7a8" stroke-width="4.0" stroke-linejoin="round" stroke-linecap="butt" d="m151.26509 251.59055l174.11024 -95.52756" fill-rule="evenodd"></path><path fill="#000000" fill-opacity="0.0" d="m169.61154 265.91602l155.77954 -109.85828" fill-rule="evenodd"></path><path stroke="#b6d7a8" stroke-width="4.0" stroke-linejoin="round" stroke-linecap="butt" d="m169.61154 265.91602l155.77954 -109.85828" fill-rule="evenodd"></path><path fill="#9fc5e8" d="m52.51706 136.021l0 0c0 -5.534439 4.486553 -10.020996 10.021 -10.020996l78.698166 0c2.65773 0 5.2066193 1.0557785 7.085907 2.935089c1.879303 1.8792877 2.935089 4.428177 2.935089 7.085907l0 40.083984c0 5.5344543 -4.486557 10.021011 -10.020996 10.021011l-78.698166 0c-5.5344467 0 -10.021 -4.486557 -10.021 -10.021011z" fill-rule="evenodd"></path><path stroke="#595959" stroke-width="1.0" stroke-linejoin="round" stroke-linecap="butt" d="m52.51706 136.021l0 0c0 -5.534439 4.486553 -10.020996 10.021 -10.020996l78.698166 0c2.65773 0 5.2066193 1.0557785 7.085907 2.935089c1.879303 1.8792877 2.935089 4.428177 2.935089 7.085907l0 40.083984c0 5.5344543 -4.486557 10.021011 -10.020996 10.021011l-78.698166 0c-5.5344467 0 -10.021 -4.486557 -10.021 -10.021011z" fill-rule="evenodd"></path><path fill="#000000" d="m74.655235 149.62361l1.765625 0l0 7.71875q0 2.015625 -0.453125 3.203125q-0.453125 1.1875 -1.640625 1.9375q-1.1875 0.734375 -3.125 0.734375q-1.875 0 -3.078125 -0.640625q-1.1875 -0.65625 -1.703125 -1.875q-0.5 -1.234375 -0.5 -3.359375l0 -7.71875l1.765625 0l0 7.71875q0 1.734375 0.3125 2.5625q0.328125 0.8125 1.109375 1.265625q0.796875 0.453125 1.9375 0.453125q1.953125 0 2.78125 -0.890625q0.828125 -0.890625 0.828125 -3.390625l0 -7.71875zm3.8479462 10.46875l1.625 -0.25q0.125 0.96875 0.75 1.5q0.625 0.515625 1.75 0.515625q1.125 0 1.671875 -0.453125q0.546875 -0.46875 0.546875 -1.09375q0 -0.546875 -0.484375 -0.875q-0.328125 -0.21875 -1.671875 -0.546875q-1.8125 -0.46875 -2.515625 -0.796875q-0.6875 -0.328125 -1.046875 -0.90625q-0.359375 -0.59375 -0.359375 -1.3125q0 -0.640625 0.296875 -1.1875q0.296875 -0.5625 0.8125 -0.921875q0.375 -0.28125 1.03125 -0.46875q0.671875 -0.203125 1.421875 -0.203125q1.140625 0 2.0 0.328125q0.859375 0.328125 1.265625 0.890625q0.421875 0.5625 0.578125 1.5l-1.609375 0.21875q-0.109375 -0.75 -0.640625 -1.171875q-0.515625 -0.421875 -1.46875 -0.421875q-1.140625 0 -1.625 0.375q-0.46875 0.375 -0.46875 0.875q0 0.3125 0.1875 0.578125q0.203125 0.265625 0.640625 0.4375q0.234375 0.09375 1.4375 0.421875q1.75 0.453125 2.4375 0.75q0.6875 0.296875 1.078125 0.859375q0.390625 0.5625 0.390625 1.40625q0 0.828125 -0.484375 1.546875q-0.46875 0.71875 -1.375 1.125q-0.90625 0.390625 -2.046875 0.390625q-1.875 0 -2.875 -0.78125q-0.984375 -0.78125 -1.25 -2.328125zm16.609375 -0.21875l1.6875 0.203125q-0.40625 1.484375 -1.484375 2.3125q-1.078125 0.8125 -2.765625 0.8125q-2.125 0 -3.375 -1.296875q-1.234375 -1.3125 -1.234375 -3.671875q0 -2.453125 1.25 -3.796875q1.265625 -1.34375 3.265625 -1.34375q1.9375 0 3.15625 1.328125q1.234375 1.3125 1.234375 3.703125q0 0.15625 0 0.4375l-7.21875 0q0.09375 1.59375 0.90625 2.453125q0.8125 0.84375 2.015625 0.84375q0.90625 0 1.546875 -0.46875q0.640625 -0.484375 1.015625 -1.515625zm-5.390625 -2.65625l5.40625 0q-0.109375 -1.21875 -0.625 -1.828125q-0.78125 -0.953125 -2.03125 -0.953125q-1.125 0 -1.90625 0.765625q-0.765625 0.75 -0.84375 2.015625zm9.125717 5.765625l0 -9.671875l1.46875 0l0 1.46875q0.5625 -1.03125 1.03125 -1.359375q0.484375 -0.328125 1.0625 -0.328125q0.828125 0 1.6875 0.53125l-0.5625 1.515625q-0.609375 -0.359375 -1.203125 -0.359375q-0.546875 0 -0.96875 0.328125q-0.421875 0.328125 -0.609375 0.890625q-0.28125 0.875 -0.28125 1.921875l0 5.0625l-1.625 0z" fill-rule="nonzero"></path><path fill="#000000" fill-opacity="0.0" d="m151.26509 156.06299l174.11024 0" fill-rule="evenodd"></path><path stroke="#a4c2f4" stroke-width="4.0" stroke-linejoin="round" stroke-linecap="butt" d="m151.26509 156.06299l174.11024 0" fill-rule="evenodd"></path><path fill="#b6d7a8" d="m52.51706 231.53806l0 0c0 -5.534439 4.486553 -10.020996 10.021 -10.020996l78.698166 0c2.65773 0 5.2066193 1.0557861 7.085907 2.935089c1.879303 1.879303 2.935089 4.428177 2.935089 7.085907l0 40.083984c0 5.5344543 -4.486557 10.020996 -10.020996 10.020996l-78.698166 0c-5.5344467 0 -10.021 -4.4865417 -10.021 -10.020996z" fill-rule="evenodd"></path><path stroke="#595959" stroke-width="1.0" stroke-linejoin="round" stroke-linecap="butt" d="m52.51706 231.53806l0 0c0 -5.534439 4.486553 -10.020996 10.021 -10.020996l78.698166 0c2.65773 0 5.2066193 1.0557861 7.085907 2.935089c1.879303 1.879303 2.935089 4.428177 2.935089 7.085907l0 40.083984c0 5.5344543 -4.486557 10.020996 -10.020996 10.020996l-78.698166 0c-5.5344467 0 -10.021 -4.4865417 -10.021 -10.020996z" fill-rule="evenodd"></path><path fill="#000000" d="m74.655235 245.14067l1.765625 0l0 7.71875q0 2.015625 -0.453125 3.2031403q-0.453125 1.1875 -1.640625 1.9375q-1.1875 0.734375 -3.125 0.734375q-1.875 0 -3.078125 -0.640625q-1.1875 -0.65625 -1.703125 -1.875q-0.5 -1.2343903 -0.5 -3.3593903l0 -7.71875l1.765625 0l0 7.71875q0 1.734375 0.3125 2.5625q0.328125 0.81251526 1.109375 1.2656403q0.796875 0.453125 1.9375 0.453125q1.953125 0 2.78125 -0.890625q0.828125 -0.89064026 0.828125 -3.3906403l0 -7.71875zm3.8479462 10.46875l1.625 -0.25q0.125 0.96876526 0.75 1.5000153q0.625 0.515625 1.75 0.515625q1.125 0 1.671875 -0.453125q0.546875 -0.46875 0.546875 -1.0937653q0 -0.546875 -0.484375 -0.875q-0.328125 -0.21875 -1.671875 -0.546875q-1.8125 -0.46875 -2.515625 -0.796875q-0.6875 -0.328125 -1.046875 -0.90625q-0.359375 -0.59375 -0.359375 -1.3125q0 -0.640625 0.296875 -1.1875q0.296875 -0.5625 0.8125 -0.921875q0.375 -0.28125 1.03125 -0.46875q0.671875 -0.203125 1.421875 -0.203125q1.140625 0 2.0 0.328125q0.859375 0.328125 1.265625 0.890625q0.421875 0.5625 0.578125 1.5l-1.609375 0.21875q-0.109375 -0.75 -0.640625 -1.171875q-0.515625 -0.421875 -1.46875 -0.421875q-1.140625 0 -1.625 0.375q-0.46875 0.375 -0.46875 0.875q0 0.3125 0.1875 0.578125q0.203125 0.265625 0.640625 0.4375q0.234375 0.09375 1.4375 0.421875q1.75 0.453125 2.4375 0.75q0.6875 0.296875 1.078125 0.859375q0.390625 0.5625 0.390625 1.40625q0 0.82814026 -0.484375 1.5468903q-0.46875 0.71875 -1.375 1.125q-0.90625 0.390625 -2.046875 0.390625q-1.875 0 -2.875 -0.78125q-0.984375 -0.78125 -1.25 -2.3281403zm16.609375 -0.21875l1.6875 0.203125q-0.40625 1.4843903 -1.484375 2.3125153q-1.078125 0.8125 -2.765625 0.8125q-2.125 0 -3.375 -1.296875q-1.234375 -1.3125 -1.234375 -3.6718903q0 -2.453125 1.25 -3.796875q1.265625 -1.34375 3.265625 -1.34375q1.9375 0 3.15625 1.328125q1.234375 1.3125 1.234375 3.703125q0 0.15625 0 0.4375l-7.21875 0q0.09375 1.59375 0.90625 2.4531403q0.8125 0.84375 2.015625 0.84375q0.90625 0 1.546875 -0.46875q0.640625 -0.484375 1.015625 -1.5156403zm-5.390625 -2.65625l5.40625 0q-0.109375 -1.21875 -0.625 -1.828125q-0.78125 -0.953125 -2.03125 -0.953125q-1.125 0 -1.90625 0.765625q-0.765625 0.75 -0.84375 2.015625zm9.125717 5.7656403l0 -9.67189l1.46875 0l0 1.46875q0.5625 -1.03125 1.03125 -1.359375q0.484375 -0.328125 1.0625 -0.328125q0.828125 0 1.6875 0.53125l-0.5625 1.515625q-0.609375 -0.359375 -1.203125 -0.359375q-0.546875 0 -0.96875 0.328125q-0.421875 0.328125 -0.609375 0.890625q-0.28125 0.875 -0.28125 1.921875l0 5.0625153l-1.625 0z" fill-rule="nonzero"></path><path fill="#b6d7a8" d="m70.87139 245.87401l0 0c0 -5.534439 4.4865494 -10.020996 10.020996 -10.020996l78.69816 0c2.6577454 0 5.2066193 1.0557861 7.0859222 2.935089c1.879303 1.879303 2.9350739 4.428177 2.9350739 7.085907l0 40.084c0 5.5344543 -4.4865417 10.020996 -10.020996 10.020996l-78.69816 0c-5.5344467 0 -10.020996 -4.4865417 -10.020996 -10.020996z" fill-rule="evenodd"></path><path stroke="#595959" stroke-width="1.0" stroke-linejoin="round" stroke-linecap="butt" d="m70.87139 245.87401l0 0c0 -5.534439 4.4865494 -10.020996 10.020996 -10.020996l78.69816 0c2.6577454 0 5.2066193 1.0557861 7.0859222 2.935089c1.879303 1.879303 2.9350739 4.428177 2.9350739 7.085907l0 40.084c0 5.5344543 -4.4865417 10.020996 -10.020996 10.020996l-78.69816 0c-5.5344467 0 -10.020996 -4.4865417 -10.020996 -10.020996z" fill-rule="evenodd"></path><path fill="#000000" d="m93.00957 259.47662l1.765625 0l0 7.71875q0 2.015625 -0.453125 3.203125q-0.453125 1.1875 -1.640625 1.9375q-1.1875 0.734375 -3.125 0.734375q-1.875 0 -3.078125 -0.640625q-1.1875 -0.65625 -1.703125 -1.875q-0.5 -1.234375 -0.5 -3.359375l0 -7.71875l1.765625 0l0 7.71875q0 1.734375 0.3125 2.5625q0.328125 0.8125 1.109375 1.265625q0.796875 0.453125 1.9375 0.453125q1.953125 0 2.78125 -0.890625q0.828125 -0.890625 0.828125 -3.390625l0 -7.71875zm3.8479462 10.46875l1.625 -0.25q0.125 0.96875 0.75 1.5q0.625 0.515625 1.75 0.515625q1.125 0 1.671875 -0.453125q0.546875 -0.46875 0.546875 -1.09375q0 -0.546875 -0.484375 -0.875q-0.328125 -0.21875 -1.671875 -0.546875q-1.8125 -0.46875 -2.515625 -0.796875q-0.6875 -0.328125 -1.046875 -0.90625q-0.359375 -0.59375 -0.359375 -1.3125q0 -0.640625 0.296875 -1.1875q0.296875 -0.5625 0.8125 -0.921875q0.375 -0.28125 1.03125 -0.46875q0.671875 -0.203125 1.421875 -0.203125q1.140625 0 2.0 0.328125q0.859375 0.328125 1.265625 0.890625q0.421875 0.5625 0.578125 1.5l-1.609375 0.21875q-0.109375 -0.75 -0.640625 -1.171875q-0.515625 -0.421875 -1.46875 -0.421875q-1.140625 0 -1.625 0.375q-0.46875 0.375 -0.46875 0.875q0 0.3125 0.1875 0.578125q0.203125 0.265625 0.640625 0.4375q0.234375 0.09375 1.4375 0.421875q1.75 0.453125 2.4375 0.75q0.6875 0.296875 1.078125 0.859375q0.390625 0.5625 0.390625 1.40625q0 0.828125 -0.484375 1.546875q-0.46875 0.71875 -1.375 1.125q-0.90625 0.390625 -2.046875 0.390625q-1.875 0 -2.875 -0.78125q-0.984375 -0.78125 -1.25 -2.328125zm16.609375 -0.21875l1.6875 0.203125q-0.40625 1.484375 -1.484375 2.3125q-1.078125 0.8125 -2.765625 0.8125q-2.125 0 -3.375 -1.296875q-1.234375 -1.3125 -1.234375 -3.671875q0 -2.453125 1.25 -3.796875q1.265625 -1.34375 3.265625 -1.34375q1.9375 0 3.15625 1.328125q1.234375 1.3125 1.234375 3.703125q0 0.15625 0 0.4375l-7.21875 0q0.09375 1.59375 0.90625 2.453125q0.8125 0.84375 2.015625 0.84375q0.90625 0 1.546875 -0.46875q0.640625 -0.484375 1.015625 -1.515625zm-5.390625 -2.65625l5.40625 0q-0.109375 -1.21875 -0.625 -1.828125q-0.78125 -0.953125 -2.03125 -0.953125q-1.125 0 -1.90625 0.765625q-0.765625 0.75 -0.84375 2.015625zm9.125717 5.765625l0 -9.671875l1.46875 0l0 1.46875q0.5625 -1.03125 1.03125 -1.359375q0.484375 -0.328125 1.0625 -0.328125q0.828125 0 1.6875 0.53125l-0.5625 1.515625q-0.609375 -0.359375 -1.203125 -0.359375q-0.546875 0 -0.96875 0.328125q-0.421875 0.328125 -0.609375 0.890625q-0.28125 0.875 -0.28125 1.921875l0 5.0625l-1.625 0z" fill-rule="nonzero"></path></g></svg>

